# 10' x 10' booth - units: inches, Z up
mtllib booth_10x10.mtl
o Carpet
usemtl carpet
v 0.0000 0.0000 -0.5000
v 0.0000 0.0000 0.0000
v 0.0000 120.0000 -0.5000
v 0.0000 120.0000 0.0000
v 120.0000 0.0000 -0.5000
v 120.0000 0.0000 0.0000
v 120.0000 120.0000 -0.5000
v 120.0000 120.0000 0.0000
f 2 4 1
f 5 2 1
f 1 4 3
f 3 5 1
f 2 8 4
f 6 2 5
f 6 8 2
f 4 8 3
f 7 5 3
f 3 8 7
f 7 6 5
f 8 6 7
o Left_Back_Post
usemtl frame
v 0.0000 114.0000 0.0000
v 6.0000 114.0000 0.0000
v 6.0000 120.0000 0.0000
v 0.0000 120.0000 0.0000
v 0.0000 114.0000 90.0000
v 6.0000 114.0000 90.0000
v 6.0000 120.0000 90.0000
v 0.0000 120.0000 90.0000
f 11 10 9
f 12 11 9
f 13 14 15
f 13 15 16
f 9 10 14
f 9 14 13
f 15 11 12
f 16 15 12
f 16 12 9
f 13 16 9
f 10 11 15
f 10 15 14
o Left_Front_Post
usemtl frame
v 0.0000 57.0000 0.0000
v 6.0000 57.0000 0.0000
v 6.0000 63.0000 0.0000
v 0.0000 63.0000 0.0000
v 0.0000 57.0000 90.0000
v 6.0000 57.0000 90.0000
v 6.0000 63.0000 90.0000
v 0.0000 63.0000 90.0000
f 19 18 17
f 20 19 17
f 21 22 23
f 21 23 24
f 17 18 22
f 17 22 21
f 23 19 20
f 24 23 20
f 24 20 17
f 21 24 17
f 18 19 23
f 18 23 22
o Left_Top_Rail
usemtl frame
v 0.0000 63.0000 84.0000
v 6.0000 63.0000 84.0000
v 6.0000 114.0000 84.0000
v 0.0000 114.0000 84.0000
v 0.0000 63.0000 90.0000
v 6.0000 63.0000 90.0000
v 6.0000 114.0000 90.0000
v 0.0000 114.0000 90.0000
f 27 26 25
f 28 27 25
f 29 30 31
f 29 31 32
f 25 26 30
f 25 30 29
f 31 27 28
f 32 31 28
f 32 28 25
f 29 32 25
f 26 27 31
f 26 31 30
o Right_Back_Post
usemtl frame
v 114.0000 114.0000 0.0000
v 120.0000 114.0000 0.0000
v 120.0000 120.0000 0.0000
v 114.0000 120.0000 0.0000
v 114.0000 114.0000 90.0000
v 120.0000 114.0000 90.0000
v 120.0000 120.0000 90.0000
v 114.0000 120.0000 90.0000
f 35 34 33
f 36 35 33
f 37 38 39
f 37 39 40
f 33 34 38
f 33 38 37
f 39 35 36
f 40 39 36
f 40 36 33
f 37 40 33
f 34 35 39
f 34 39 38
o Right_Front_Post
usemtl frame
v 114.0000 57.0000 0.0000
v 120.0000 57.0000 0.0000
v 120.0000 63.0000 0.0000
v 114.0000 63.0000 0.0000
v 114.0000 57.0000 90.0000
v 120.0000 57.0000 90.0000
v 120.0000 63.0000 90.0000
v 114.0000 63.0000 90.0000
f 43 42 41
f 44 43 41
f 45 46 47
f 45 47 48
f 41 42 46
f 41 46 45
f 47 43 44
f 48 47 44
f 48 44 41
f 45 48 41
f 42 43 47
f 42 47 46
o Right_Top_Rail
usemtl frame
v 114.0000 63.0000 84.0000
v 120.0000 63.0000 84.0000
v 120.0000 114.0000 84.0000
v 114.0000 114.0000 84.0000
v 114.0000 63.0000 90.0000
v 120.0000 63.0000 90.0000
v 120.0000 114.0000 90.0000
v 114.0000 114.0000 90.0000
f 51 50 49
f 52 51 49
f 53 54 55
f 53 55 56
f 49 50 54
f 49 54 53
f 55 51 52
f 56 55 52
f 56 52 49
f 53 56 49
f 50 51 55
f 50 55 54
o Header_Beam
usemtl frame
v 6.0000 102.0000 84.0000
v 114.0000 102.0000 84.0000
v 114.0000 108.0000 84.0000
v 6.0000 108.0000 84.0000
v 6.0000 102.0000 90.0000
v 114.0000 102.0000 90.0000
v 114.0000 108.0000 90.0000
v 6.0000 108.0000 90.0000
f 59 58 57
f 60 59 57
f 61 62 63
f 61 63 64
f 57 58 62
f 57 62 61
f 63 59 60
f 64 63 60
f 64 60 57
f 61 64 57
f 58 59 63
f 58 63 62
o Triangle_Canopy
usemtl canopy
v 19.5000 72.0000 96.0000
v 100.5000 72.0000 96.0000
v 86.6436 64.0000 96.0000
v 33.3564 64.0000 96.0000
v 22.9641 70.0000 91.0000
v 97.0359 70.0000 91.0000
v 86.6436 64.0000 91.0000
v 33.3564 64.0000 91.0000
v 60.0000 1.8519 96.0000
v 60.0000 17.8519 96.0000
v 60.0000 5.8519 91.0000
v 60.0000 17.8519 91.0000
f 67 66 65
f 68 67 65
f 69 70 71
f 69 71 72
f 65 66 70
f 65 70 69
f 71 67 68
f 72 71 68
f 74 73 66
f 67 74 66
f 70 75 76
f 70 76 71
f 66 73 75
f 66 75 70
f 76 74 67
f 71 76 67
f 68 65 73
f 74 68 73
f 75 69 72
f 75 72 76
f 73 65 69
f 73 69 75
f 72 68 74
f 76 72 74
o Canopy_Post_Left
usemtl frame
v 26.5000 64.0000 0.0000
v 31.5000 64.0000 0.0000
v 31.5000 69.0000 0.0000
v 26.5000 69.0000 0.0000
v 26.5000 64.0000 91.0000
v 31.5000 64.0000 91.0000
v 31.5000 69.0000 91.0000
v 26.5000 69.0000 91.0000
f 79 78 77
f 80 79 77
f 81 82 83
f 81 83 84
f 77 78 82
f 77 82 81
f 83 79 80
f 84 83 80
f 84 80 77
f 81 84 77
f 78 79 83
f 78 83 82
o Canopy_Post_Right
usemtl frame
v 88.5000 64.0000 0.0000
v 93.5000 64.0000 0.0000
v 93.5000 69.0000 0.0000
v 88.5000 69.0000 0.0000
v 88.5000 64.0000 91.0000
v 93.5000 64.0000 91.0000
v 93.5000 69.0000 91.0000
v 88.5000 69.0000 91.0000
f 87 86 85
f 88 87 85
f 89 90 91
f 89 91 92
f 85 86 90
f 85 90 89
f 91 87 88
f 92 91 88
f 92 88 85
f 89 92 85
f 86 87 91
f 86 91 90
o Canopy_Post_Front
usemtl frame
v 57.5000 10.5000 0.0000
v 62.5000 10.5000 0.0000
v 62.5000 15.5000 0.0000
v 57.5000 15.5000 0.0000
v 57.5000 10.5000 91.0000
v 62.5000 10.5000 91.0000
v 62.5000 15.5000 91.0000
v 57.5000 15.5000 91.0000
f 95 94 93
f 96 95 93
f 97 98 99
f 97 99 100
f 93 94 98
f 93 98 97
f 99 95 96
f 100 99 96
f 100 96 93
f 97 100 93
f 94 95 99
f 94 99 98
