  0
SECTION
  2
HEADER
  9
$ACADVER
  1
AC1024
  9
$ACADMAINTVER
 70
6
  9
$DWGCODEPAGE
  3
ANSI_1252
  9
$LASTSAVEDBY
  1
ezdxf
  9
$INSBASE
 10
0.0
 20
0.0
 30
0.0
  9
$EXTMIN
 10
1e+20
 20
1e+20
 30
1e+20
  9
$EXTMAX
 10
-1e+20
 20
-1e+20
 30
-1e+20
  9
$LIMMIN
 10
0.0
 20
0.0
  9
$LIMMAX
 10
420.0
 20
297.0
  9
$ORTHOMODE
 70
0
  9
$REGENMODE
 70
1
  9
$FILLMODE
 70
1
  9
$QTEXTMODE
 70
0
  9
$MIRRTEXT
 70
1
  9
$LTSCALE
 40
1.0
  9
$ATTMODE
 70
1
  9
$TEXTSIZE
 40
2.5
  9
$TRACEWID
 40
1.0
  9
$TEXTSTYLE
  7
OpenSans
  9
$CLAYER
  8
0
  9
$CELTYPE
  6
ByLayer
  9
$CECOLOR
 62
256
  9
$CELTSCALE
 40
1.0
  9
$DISPSILH
 70
0
  9
$DIMSCALE
 40
1.0
  9
$DIMASZ
 40
0.175
  9
$DIMEXO
 40
0.125
  9
$DIMDLI
 40
3.75
  9
$DIMRND
 40
0.0
  9
$DIMDLE
 40
0.0
  9
$DIMEXE
 40
0.375
  9
$DIMTP
 40
0.0
  9
$DIMTM
 40
0.0
  9
$DIMTXT
 40
0.25
  9
$DIMCEN
 40
2.5
  9
$DIMTSZ
 40
0.0
  9
$DIMTOL
 70
0
  9
$DIMLIM
 70
0
  9
$DIMTIH
 70
0
  9
$DIMTOH
 70
0
  9
$DIMSE1
 70
0
  9
$DIMSE2
 70
0
  9
$DIMTAD
 70
1
  9
$DIMZIN
 70
12
  9
$DIMBLK
  1
ARCHTICK
  9
$DIMASO
 70
1
  9
$DIMSHO
 70
1
  9
$DIMPOST
  1

  9
$DIMAPOST
  1

  9
$DIMALT
 70
0
  9
$DIMALTD
 70
3
  9
$DIMALTF
 40
0.03937007874
  9
$DIMLFAC
 40
100.0
  9
$DIMTOFL
 70
1
  9
$DIMTVP
 40
0.0
  9
$DIMTIX
 70
0
  9
$DIMSOXD
 70
0
  9
$DIMSAH
 70
0
  9
$DIMBLK1
  1

  9
$DIMBLK2
  1

  9
$DIMSTYLE
  2
EZDXF
  9
$DIMCLRD
 70
0
  9
$DIMCLRE
 70
0
  9
$DIMCLRT
 70
0
  9
$DIMTFAC
 40
0.5
  9
$DIMGAP
 40
0.1
  9
$DIMJUST
 70
0
  9
$DIMSD1
 70
0
  9
$DIMSD2
 70
0
  9
$DIMTOLJ
 70
0
  9
$DIMTZIN
 70
8
  9
$DIMALTZ
 70
0
  9
$DIMALTTZ
 70
0
  9
$DIMUPT
 70
1
  9
$DIMDEC
 70
2
  9
$DIMTDEC
 70
2
  9
$DIMALTU
 70
2
  9
$DIMALTTD
 70
3
  9
$DIMTXSTY
  7
OpenSansCondensed-Light
  9
$DIMAUNIT
 70
0
  9
$DIMADEC
 70
2
  9
$DIMALTRND
 40
0.0
  9
$DIMAZIN
 70
3
  9
$DIMDSEP
 70
46
  9
$DIMATFIT
 70
3
  9
$DIMFRAC
 70
0
  9
$DIMLDRBLK
  1

  9
$DIMLUNIT
 70
2
  9
$DIMLWD
 70
-2
  9
$DIMLWE
 70
-2
  9
$DIMTMOVE
 70
2
  9
$DIMFXL
 40
1.0
  9
$DIMFXLON
 70
0
  9
$DIMJOGANG
 40
0.785398163397
  9
$DIMTFILL
 70
0
  9
$DIMTFILLCLR
 70
0
  9
$DIMARCSYM
 70
0
  9
$DIMLTYPE
  6

  9
$DIMLTEX1
  6

  9
$DIMLTEX2
  6

  9
$DIMTXTDIRECTION
 70
0
  9
$LUNITS
 70
4
  9
$LUPREC
 70
4
  9
$SKETCHINC
 40
1.0
  9
$FILLETRAD
 40
10.0
  9
$AUNITS
 70
0
  9
$AUPREC
 70
2
  9
$MENU
  1
.
  9
$ELEVATION
 40
0.0
  9
$PELEVATION
 40
0.0
  9
$THICKNESS
 40
0.0
  9
$LIMCHECK
 70
0
  9
$CHAMFERA
 40
0.0
  9
$CHAMFERB
 40
0.0
  9
$CHAMFERC
 40
0.0
  9
$CHAMFERD
 40
0.0
  9
$SKPOLY
 70
0
  9
$TDCREATE
 40
2461306.867962963
  9
$TDUCREATE
 40
2458532.153996898
  9
$TDUPDATE
 40
2461306.867962963
  9
$TDUUPDATE
 40
2458532.1544311
  9
$TDINDWG
 40
0.0
  9
$TDUSRTIMER
 40
0.0
  9
$USRTIMER
 70
1
  9
$ANGBASE
 50
0.0
  9
$ANGDIR
 70
0
  9
$PDMODE
 70
0
  9
$PDSIZE
 40
0.0
  9
$PLINEWID
 40
0.0
  9
$SPLFRAME
 70
0
  9
$SPLINETYPE
 70
6
  9
$SPLINESEGS
 70
8
  9
$HANDSEED
  5
27E
  9
$SURFTAB1
 70
6
  9
$SURFTAB2
 70
6
  9
$SURFTYPE
 70
6
  9
$SURFU
 70
6
  9
$SURFV
 70
6
  9
$UCSBASE
  2

  9
$UCSNAME
  2

  9
$UCSORG
 10
0.0
 20
0.0
 30
0.0
  9
$UCSXDIR
 10
1.0
 20
0.0
 30
0.0
  9
$UCSYDIR
 10
0.0
 20
1.0
 30
0.0
  9
$UCSORTHOREF
  2

  9
$UCSORTHOVIEW
 70
0
  9
$UCSORGTOP
 10
0.0
 20
0.0
 30
0.0
  9
$UCSORGBOTTOM
 10
0.0
 20
0.0
 30
0.0
  9
$UCSORGLEFT
 10
0.0
 20
0.0
 30
0.0
  9
$UCSORGRIGHT
 10
0.0
 20
0.0
 30
0.0
  9
$UCSORGFRONT
 10
0.0
 20
0.0
 30
0.0
  9
$UCSORGBACK
 10
0.0
 20
0.0
 30
0.0
  9
$PUCSBASE
  2

  9
$PUCSNAME
  2

  9
$PUCSORG
 10
0.0
 20
0.0
 30
0.0
  9
$PUCSXDIR
 10
1.0
 20
0.0
 30
0.0
  9
$PUCSYDIR
 10
0.0
 20
1.0
 30
0.0
  9
$PUCSORTHOREF
  2

  9
$PUCSORTHOVIEW
 70
0
  9
$PUCSORGTOP
 10
0.0
 20
0.0
 30
0.0
  9
$PUCSORGBOTTOM
 10
0.0
 20
0.0
 30
0.0
  9
$PUCSORGLEFT
 10
0.0
 20
0.0
 30
0.0
  9
$PUCSORGRIGHT
 10
0.0
 20
0.0
 30
0.0
  9
$PUCSORGFRONT
 10
0.0
 20
0.0
 30
0.0
  9
$PUCSORGBACK
 10
0.0
 20
0.0
 30
0.0
  9
$USERI1
 70
0
  9
$USERI2
 70
0
  9
$USERI3
 70
0
  9
$USERI4
 70
0
  9
$USERI5
 70
0
  9
$USERR1
 40
0.0
  9
$USERR2
 40
0.0
  9
$USERR3
 40
0.0
  9
$USERR4
 40
0.0
  9
$USERR5
 40
0.0
  9
$WORLDVIEW
 70
1
  9
$SHADEDGE
 70
3
  9
$SHADEDIF
 70
70
  9
$TILEMODE
 70
1
  9
$MAXACTVP
 70
64
  9
$PINSBASE
 10
0.0
 20
0.0
 30
0.0
  9
$PLIMCHECK
 70
0
  9
$PEXTMIN
 10
1e+20
 20
1e+20
 30
1e+20
  9
$PEXTMAX
 10
-1e+20
 20
-1e+20
 30
-1e+20
  9
$PLIMMIN
 10
0.0
 20
0.0
  9
$PLIMMAX
 10
420.0
 20
297.0
  9
$UNITMODE
 70
0
  9
$VISRETAIN
 70
1
  9
$PLINEGEN
 70
0
  9
$PSLTSCALE
 70
1
  9
$TREEDEPTH
 70
3020
  9
$CMLSTYLE
  2
Standard
  9
$CMLJUST
 70
0
  9
$CMLSCALE
 40
20.0
  9
$PROXYGRAPHICS
 70
1
  9
$MEASUREMENT
 70
0
  9
$CELWEIGHT
370
-1
  9
$ENDCAPS
280
0
  9
$JOINSTYLE
280
0
  9
$LWDISPLAY
290
0
  9
$INSUNITS
 70
1
  9
$HYPERLINKBASE
  1

  9
$STYLESHEET
  1

  9
$XEDIT
290
1
  9
$CEPSNTYPE
380
0
  9
$PSTYLEMODE
290
1
  9
$FINGERPRINTGUID
  2
{A663C466-97AC-4BCD-8907-C7D87E3F8DC6}
  9
$VERSIONGUID
  2
{49803CB3-00A3-4398-B48F-169F8E608FDA}
  9
$EXTNAMES
290
1
  9
$PSVPSCALE
 40
0.0
  9
$OLESTARTUP
290
0
  9
$SORTENTS
280
127
  9
$INDEXCTL
280
0
  9
$HIDETEXT
280
1
  9
$XCLIPFRAME
280
1
  9
$HALOGAP
280
0
  9
$OBSCOLOR
 70
257
  9
$OBSLTYPE
280
0
  9
$INTERSECTIONDISPLAY
280
0
  9
$INTERSECTIONCOLOR
 70
257
  9
$DIMASSOC
280
2
  9
$PROJECTNAME
  1

  9
$CAMERADISPLAY
290
0
  9
$LENSLENGTH
 40
50.0
  9
$CAMERAHEIGHT
 40
0.0
  9
$STEPSPERSEC
 40
24.0
  9
$STEPSIZE
 40
100.0
  9
$3DDWFPREC
 40
2.0
  9
$PSOLWIDTH
 40
0.005
  9
$PSOLHEIGHT
 40
0.08
  9
$LOFTANG1
 40
1.570796326795
  9
$LOFTANG2
 40
1.570796326795
  9
$LOFTMAG1
 40
0.0
  9
$LOFTMAG2
 40
0.0
  9
$LOFTPARAM
 70
7
  9
$LOFTNORMALS
280
1
  9
$LATITUDE
 40
37.795
  9
$LONGITUDE
 40
-122.394
  9
$NORTHDIRECTION
 40
0.0
  9
$TIMEZONE
 70
-8000
  9
$LIGHTGLYPHDISPLAY
280
1
  9
$TILEMODELIGHTSYNCH
280
1
  9
$CMATERIAL
347
20
  9
$SOLIDHIST
280
0
  9
$SHOWHIST
280
1
  9
$DWFFRAME
280
2
  9
$DGNFRAME
280
2
  9
$REALWORLDSCALE
290
1
  9
$INTERFERECOLOR
 62
256
  9
$CSHADOW
280
0
  9
$SHADOWPLANELOCATION
 40
0.0
  0
ENDSEC
  0
SECTION
  2
CLASSES
  0
CLASS
  1
ACDBDICTIONARYWDFLT
  2
AcDbDictionaryWithDefault
  3
ObjectDBX Classes
 90
0
 91
0
280
0
281
0
  0
CLASS
  1
SUN
  2
AcDbSun
  3
SCENEOE
 90
1153
 91
0
280
0
281
0
  0
CLASS
  1
VISUALSTYLE
  2
AcDbVisualStyle
  3
ObjectDBX Classes
 90
4095
 91
0
280
0
281
0
  0
CLASS
  1
MATERIAL
  2
AcDbMaterial
  3
ObjectDBX Classes
 90
1153
 91
0
280
0
281
0
  0
CLASS
  1
SCALE
  2
AcDbScale
  3
ObjectDBX Classes
 90
1153
 91
0
280
0
281
0
  0
CLASS
  1
TABLESTYLE
  2
AcDbTableStyle
  3
ObjectDBX Classes
 90
4095
 91
0
280
0
281
0
  0
CLASS
  1
MLEADERSTYLE
  2
AcDbMLeaderStyle
  3
ACDB_MLEADERSTYLE_CLASS
 90
4095
 91
0
280
0
281
0
  0
CLASS
  1
DICTIONARYVAR
  2
AcDbDictionaryVar
  3
ObjectDBX Classes
 90
0
 91
0
280
0
281
0
  0
CLASS
  1
CELLSTYLEMAP
  2
AcDbCellStyleMap
  3
ObjectDBX Classes
 90
1152
 91
0
280
0
281
0
  0
CLASS
  1
MENTALRAYRENDERSETTINGS
  2
AcDbMentalRayRenderSettings
  3
SCENEOE
 90
1024
 91
0
280
0
281
0
  0
CLASS
  1
ACDBDETAILVIEWSTYLE
  2
AcDbDetailViewStyle
  3
ObjectDBX Classes
 90
1025
 91
0
280
0
281
0
  0
CLASS
  1
ACDBSECTIONVIEWSTYLE
  2
AcDbSectionViewStyle
  3
ObjectDBX Classes
 90
1025
 91
0
280
0
281
0
  0
CLASS
  1
RASTERVARIABLES
  2
AcDbRasterVariables
  3
ISM
 90
0
 91
0
280
0
281
0
  0
CLASS
  1
ACDBPLACEHOLDER
  2
AcDbPlaceHolder
  3
ObjectDBX Classes
 90
0
 91
0
280
0
281
0
  0
CLASS
  1
LAYOUT
  2
AcDbLayout
  3
ObjectDBX Classes
 90
0
 91
0
280
0
281
0
  0
ENDSEC
  0
SECTION
  2
TABLES
  0
TABLE
  2
VPORT
  5
8
330
0
100
AcDbSymbolTable
 70
1
  0
VPORT
  5
27A
330
8
100
AcDbSymbolTableRecord
100
AcDbViewportTableRecord
  2
*Active
 70
0
 10
0.0
 20
0.0
 11
1.0
 21
1.0
 12
288.0
 22
216.0
 13
0.0
 23
0.0
 14
0.5
 24
0.5
 15
0.5
 25
0.5
 16
0.0
 26
0.0
 36
1.0
 17
0.0
 27
0.0
 37
0.0
 40
440.64
 41
1.34
 42
50.0
 43
0.0
 44
0.0
 50
0.0
 51
0.0
 71
0
 72
1000
 73
1
 74
3
 75
0
 76
0
 77
0
 78
0
281
0
 65
1
110
0.0
120
0.0
130
0.0
111
1.0
121
0.0
131
0.0
112
0.0
122
1.0
132
0.0
 79
0
146
0.0
  0
ENDTAB
  0
TABLE
  2
LTYPE
  5
2
330
0
100
AcDbSymbolTable
 70
21
  0
LTYPE
  5
24
330
2
100
AcDbSymbolTableRecord
100
AcDbLinetypeTableRecord
  2
ByBlock
 70
0
  3

 72
65
 73
0
 40
0.0
  0
LTYPE
  5
25
330
2
100
AcDbSymbolTableRecord
100
AcDbLinetypeTableRecord
  2
ByLayer
 70
0
  3

 72
65
 73
0
 40
0.0
  0
LTYPE
  5
26
330
2
100
AcDbSymbolTableRecord
100
AcDbLinetypeTableRecord
  2
Continuous
 70
0
  3

 72
65
 73
0
 40
0.0
  0
LTYPE
  5
2F
330
2
100
AcDbSymbolTableRecord
100
AcDbLinetypeTableRecord
  2
CENTER
 70
0
  3
Center ____ _ ____ _ ____ _ ____ _ ____ _ ____
 72
65
 73
4
 40
5.08
 49
3.175
 74
0
 49
-0.635
 74
0
 49
0.635
 74
0
 49
-0.635
 74
0
  0
LTYPE
  5
30
330
2
100
AcDbSymbolTableRecord
100
AcDbLinetypeTableRecord
  2
CENTERX2
 70
0
  3
Center (2x) ________  __  ________  __  ________
 72
65
 73
4
 40
8.89
 49
6.35
 74
0
 49
-0.635
 74
0
 49
1.27
 74
0
 49
-0.635
 74
0
  0
LTYPE
  5
31
330
2
100
AcDbSymbolTableRecord
100
AcDbLinetypeTableRecord
  2
CENTER2
 70
0
  3
Center (.5x) ____ _ ____ _ ____ _ ____ _ ____
 72
65
 73
4
 40
2.54
 49
1.587
 74
0
 49
-0.318
 74
0
 49
0.318
 74
0
 49
-0.318
 74
0
  0
LTYPE
  5
32
330
2
100
AcDbSymbolTableRecord
100
AcDbLinetypeTableRecord
  2
DASHED
 70
0
  3
Dashed __ __ __ __ __ __ __ __ __ __ __ __ __ _
 72
65
 73
2
 40
1.524
 49
1.27
 74
0
 49
-0.254
 74
0
  0
LTYPE
  5
33
330
2
100
AcDbSymbolTableRecord
100
AcDbLinetypeTableRecord
  2
DASHEDX2
 70
0
  3
Dashed (2x) ____  ____  ____  ____  ____  ____
 72
65
 73
2
 40
3.048
 49
2.54
 74
0
 49
-0.508
 74
0
  0
LTYPE
  5
34
330
2
100
AcDbSymbolTableRecord
100
AcDbLinetypeTableRecord
  2
DASHED2
 70
0
  3
Dashed (.5x) _ _ _ _ _ _ _ _ _ _ _ _ _ _
 72
65
 73
2
 40
0.762
 49
0.635
 74
0
 49
-0.127
 74
0
  0
LTYPE
  5
35
330
2
100
AcDbSymbolTableRecord
100
AcDbLinetypeTableRecord
  2
PHANTOM
 70
0
  3
Phantom ______  __  __  ______  __  __  ______
 72
65
 73
6
 40
6.35
 49
3.175
 74
0
 49
-0.635
 74
0
 49
0.635
 74
0
 49
-0.635
 74
0
 49
0.635
 74
0
 49
-0.635
 74
0
  0
LTYPE
  5
36
330
2
100
AcDbSymbolTableRecord
100
AcDbLinetypeTableRecord
  2
PHANTOMX2
 70
0
  3
Phantom (2x)____________    ____    ____    ____________
 72
65
 73
6
 40
10.795
 49
6.35
 74
0
 49
-0.635
 74
0
 49
1.27
 74
0
 49
-0.635
 74
0
 49
1.27
 74
0
 49
-0.635
 74
0
  0
LTYPE
  5
37
330
2
100
AcDbSymbolTableRecord
100
AcDbLinetypeTableRecord
  2
PHANTOM2
 70
0
  3
Phantom (.5x) ___ _ _ ___ _ _ ___ _ _ ___ _ _ ___
 72
65
 73
6
 40
3.175
 49
1.587
 74
0
 49
-0.318
 74
0
 49
0.318
 74
0
 49
-0.318
 74
0
 49
0.318
 74
0
 49
-0.318
 74
0
  0
LTYPE
  5
38
330
2
100
AcDbSymbolTableRecord
100
AcDbLinetypeTableRecord
  2
DASHDOT
 70
0
  3
Dash dot __ . __ . __ . __ . __ . __ . __ . __
 72
65
 73
4
 40
3.556
 49
2.54
 74
0
 49
-0.508
 74
0
 49
0.0
 74
0
 49
-0.508
 74
0
  0
LTYPE
  5
39
330
2
100
AcDbSymbolTableRecord
100
AcDbLinetypeTableRecord
  2
DASHDOTX2
 70
0
  3
Dash dot (2x) ____  .  ____  .  ____  .  ____
 72
65
 73
4
 40
6.096
 49
5.08
 74
0
 49
-0.508
 74
0
 49
0.0
 74
0
 49
-0.508
 74
0
  0
LTYPE
  5
3A
330
2
100
AcDbSymbolTableRecord
100
AcDbLinetypeTableRecord
  2
DASHDOT2
 70
0
  3
Dash dot (.5x) _ . _ . _ . _ . _ . _ . _ . _
 72
65
 73
4
 40
1.778
 49
1.27
 74
0
 49
-0.254
 74
0
 49
0.0
 74
0
 49
-0.254
 74
0
  0
LTYPE
  5
3B
330
2
100
AcDbSymbolTableRecord
100
AcDbLinetypeTableRecord
  2
DOT
 70
0
  3
Dot .  .  .  .  .  .  .  .  .  .  .  .  .  .  .  .
 72
65
 73
2
 40
0.508
 49
0.0
 74
0
 49
-0.508
 74
0
  0
LTYPE
  5
3C
330
2
100
AcDbSymbolTableRecord
100
AcDbLinetypeTableRecord
  2
DOTX2
 70
0
  3
Dot (2x) .    .    .    .    .    .    .    . 
 72
65
 73
2
 40
1.016
 49
0.0
 74
0
 49
-1.016
 74
0
  0
LTYPE
  5
3D
330
2
100
AcDbSymbolTableRecord
100
AcDbLinetypeTableRecord
  2
DOT2
 70
0
  3
Dot (.5) . . . . . . . . . . . . . . . . . . . 
 72
65
 73
2
 40
0.254
 49
0.0
 74
0
 49
-0.254
 74
0
  0
LTYPE
  5
3E
330
2
100
AcDbSymbolTableRecord
100
AcDbLinetypeTableRecord
  2
DIVIDE
 70
0
  3
Divide __ . . __ . . __ . . __ . . __ . . __
 72
65
 73
6
 40
4.064
 49
2.54
 74
0
 49
-0.508
 74
0
 49
0.0
 74
0
 49
-0.508
 74
0
 49
0.0
 74
0
 49
-0.508
 74
0
  0
LTYPE
  5
3F
330
2
100
AcDbSymbolTableRecord
100
AcDbLinetypeTableRecord
  2
DIVIDEX2
 70
0
  3
Divide (2x) ____  . .  ____  . .  ____  . .  ____
 72
65
 73
6
 40
6.604
 49
5.08
 74
0
 49
-0.508
 74
0
 49
0.0
 74
0
 49
-0.508
 74
0
 49
0.0
 74
0
 49
-0.508
 74
0
  0
LTYPE
  5
40
330
2
100
AcDbSymbolTableRecord
100
AcDbLinetypeTableRecord
  2
DIVIDE2
 70
0
  3
Divide(.5x) _ . _ . _ . _ . _ . _ . _ . _
 72
65
 73
6
 40
2.032
 49
1.27
 74
0
 49
-0.254
 74
0
 49
0.0
 74
0
 49
-0.254
 74
0
 49
0.0
 74
0
 49
-0.254
 74
0
  0
ENDTAB
  0
TABLE
  2
LAYER
  5
1
330
0
100
AcDbSymbolTable
 70
8
  0
LAYER
  5
27
330
1
100
AcDbSymbolTableRecord
100
AcDbLayerTableRecord
  2
0
 70
0
 62
7
  6
Continuous
370
-3
390
13
347
21
  0
LAYER
  5
28
330
1
100
AcDbSymbolTableRecord
100
AcDbLayerTableRecord
  2
Defpoints
 70
0
 62
7
  6
Continuous
290
0
370
-3
390
13
347
21
  0
LAYER
  5
8A
330
1
100
AcDbSymbolTableRecord
100
AcDbLayerTableRecord
  2
A-FLOR
 70
0
 62
8
  6
Continuous
370
25
390
13
347
21
  0
LAYER
  5
8B
330
1
100
AcDbSymbolTableRecord
100
AcDbLayerTableRecord
  2
A-STRC
 70
0
 62
7
  6
Continuous
370
50
390
13
347
21
  0
LAYER
  5
8C
330
1
100
AcDbSymbolTableRecord
100
AcDbLayerTableRecord
  2
A-DIMS
 70
0
 62
1
  6
Continuous
370
18
390
13
347
21
  0
LAYER
  5
8D
330
1
100
AcDbSymbolTableRecord
100
AcDbLayerTableRecord
  2
A-ANNO
 70
0
 62
7
  6
Continuous
370
25
390
13
347
21
  0
LAYER
  5
8E
330
1
100
AcDbSymbolTableRecord
100
AcDbLayerTableRecord
  2
A-TTLB
 70
0
 62
7
  6
Continuous
370
35
390
13
347
21
  0
LAYER
  5
8F
330
1
100
AcDbSymbolTableRecord
100
AcDbLayerTableRecord
  2
A-TTLB-THIN
 70
0
 62
8
  6
Continuous
370
13
390
13
347
21
  0
ENDTAB
  0
TABLE
  2
STYLE
  5
5
330
0
100
AcDbSymbolTable
 70
27
  0
STYLE
  5
29
330
5
100
AcDbSymbolTableRecord
100
AcDbTextStyleTableRecord
  2
Standard
 70
0
 40
0.0
 41
1.0
 50
0.0
 71
0
 42
2.5
  3
txt
  4

  0
STYLE
  5
41
330
5
100
AcDbSymbolTableRecord
100
AcDbTextStyleTableRecord
  2
OpenSans-Light
 70
0
 40
0.0
 41
1.0
 50
0.0
 71
0
 42
2.5
  3
OpenSans-Light.ttf
  4

  0
STYLE
  5
42
330
5
100
AcDbSymbolTableRecord
100
AcDbTextStyleTableRecord
  2
OpenSans-Light-Italic
 70
0
 40
0.0
 41
1.0
 50
0.0
 71
0
 42
2.5
  3
OpenSans-LightItalic.ttf
  4

  0
STYLE
  5
43
330
5
100
AcDbSymbolTableRecord
100
AcDbTextStyleTableRecord
  2
OpenSans
 70
0
 40
0.0
 41
1.0
 50
0.0
 71
0
 42
2.5
  3
OpenSans-Regular.ttf
  4

  0
STYLE
  5
44
330
5
100
AcDbSymbolTableRecord
100
AcDbTextStyleTableRecord
  2
OpenSans-Italic
 70
0
 40
0.0
 41
1.0
 50
0.0
 71
0
 42
2.5
  3
OpenSans-Italic.ttf
  4

  0
STYLE
  5
45
330
5
100
AcDbSymbolTableRecord
100
AcDbTextStyleTableRecord
  2
OpenSans-SemiBold
 70
0
 40
0.0
 41
1.0
 50
0.0
 71
0
 42
2.5
  3
OpenSans-SemiBold.ttf
  4

  0
STYLE
  5
46
330
5
100
AcDbSymbolTableRecord
100
AcDbTextStyleTableRecord
  2
OpenSans-SemiBoldItalic
 70
0
 40
0.0
 41
1.0
 50
0.0
 71
0
 42
2.5
  3
OpenSans-SemiBoldItalic.ttf
  4

  0
STYLE
  5
47
330
5
100
AcDbSymbolTableRecord
100
AcDbTextStyleTableRecord
  2
OpenSans-Bold
 70
0
 40
0.0
 41
1.0
 50
0.0
 71
0
 42
2.5
  3
OpenSans-Bold.ttf
  4

  0
STYLE
  5
48
330
5
100
AcDbSymbolTableRecord
100
AcDbTextStyleTableRecord
  2
OpenSans-BoldItalic
 70
0
 40
0.0
 41
1.0
 50
0.0
 71
0
 42
2.5
  3
OpenSans-BoldItalic.ttf
  4

  0
STYLE
  5
49
330
5
100
AcDbSymbolTableRecord
100
AcDbTextStyleTableRecord
  2
OpenSans-ExtraBold
 70
0
 40
0.0
 41
1.0
 50
0.0
 71
0
 42
2.5
  3
OpenSans-ExtraBold.ttf
  4

  0
STYLE
  5
4A
330
5
100
AcDbSymbolTableRecord
100
AcDbTextStyleTableRecord
  2
OpenSans-ExtraBoldItalic
 70
0
 40
0.0
 41
1.0
 50
0.0
 71
0
 42
2.5
  3
OpenSans-ExtraBoldItalic.ttf
  4

  0
STYLE
  5
4B
330
5
100
AcDbSymbolTableRecord
100
AcDbTextStyleTableRecord
  2
OpenSansCondensed-Bold
 70
0
 40
0.0
 41
1.0
 50
0.0
 71
0
 42
2.5
  3
OpenSansCondensed-Bold.ttf
  4

  0
STYLE
  5
4C
330
5
100
AcDbSymbolTableRecord
100
AcDbTextStyleTableRecord
  2
OpenSansCondensed-Light
 70
0
 40
0.0
 41
1.0
 50
0.0
 71
0
 42
2.5
  3
OpenSansCondensed-Light.ttf
  4

  0
STYLE
  5
4D
330
5
100
AcDbSymbolTableRecord
100
AcDbTextStyleTableRecord
  2
OpenSansCondensed-Italic
 70
0
 40
0.0
 41
1.0
 50
0.0
 71
0
 42
2.5
  3
OpenSansCondensed-LightItalic.ttf
  4

  0
STYLE
  5
4E
330
5
100
AcDbSymbolTableRecord
100
AcDbTextStyleTableRecord
  2
LiberationSans
 70
0
 40
0.0
 41
1.0
 50
0.0
 71
0
 42
2.5
  3
LiberationSans-Regular.ttf
  4

  0
STYLE
  5
4F
330
5
100
AcDbSymbolTableRecord
100
AcDbTextStyleTableRecord
  2
LiberationSans-Bold
 70
0
 40
0.0
 41
1.0
 50
0.0
 71
0
 42
2.5
  3
LiberationSans-Bold.ttf
  4

  0
STYLE
  5
50
330
5
100
AcDbSymbolTableRecord
100
AcDbTextStyleTableRecord
  2
LiberationSans-BoldItalic
 70
0
 40
0.0
 41
1.0
 50
0.0
 71
0
 42
2.5
  3
LiberationSans-BoldItalic.ttf
  4

  0
STYLE
  5
51
330
5
100
AcDbSymbolTableRecord
100
AcDbTextStyleTableRecord
  2
LiberationSans-Italic
 70
0
 40
0.0
 41
1.0
 50
0.0
 71
0
 42
2.5
  3
LiberationSans-Italic.ttf
  4

  0
STYLE
  5
52
330
5
100
AcDbSymbolTableRecord
100
AcDbTextStyleTableRecord
  2
LiberationSerif
 70
0
 40
0.0
 41
1.0
 50
0.0
 71
0
 42
2.5
  3
LiberationSerif-Regular.ttf
  4

  0
STYLE
  5
53
330
5
100
AcDbSymbolTableRecord
100
AcDbTextStyleTableRecord
  2
LiberationSerif-Bold
 70
0
 40
0.0
 41
1.0
 50
0.0
 71
0
 42
2.5
  3
LiberationSerif-Bold.ttf
  4

  0
STYLE
  5
54
330
5
100
AcDbSymbolTableRecord
100
AcDbTextStyleTableRecord
  2
LiberationSerif-BoldItalic
 70
0
 40
0.0
 41
1.0
 50
0.0
 71
0
 42
2.5
  3
LiberationSerif-BoldItalic.ttf
  4

  0
STYLE
  5
55
330
5
100
AcDbSymbolTableRecord
100
AcDbTextStyleTableRecord
  2
LiberationSerif-Italic
 70
0
 40
0.0
 41
1.0
 50
0.0
 71
0
 42
2.5
  3
LiberationSerif-Italic.ttf
  4

  0
STYLE
  5
56
330
5
100
AcDbSymbolTableRecord
100
AcDbTextStyleTableRecord
  2
LiberationMono
 70
0
 40
0.0
 41
1.0
 50
0.0
 71
0
 42
2.5
  3
LiberationMono-Regular.ttf
  4

  0
STYLE
  5
57
330
5
100
AcDbSymbolTableRecord
100
AcDbTextStyleTableRecord
  2
LiberationMono-Bold
 70
0
 40
0.0
 41
1.0
 50
0.0
 71
0
 42
2.5
  3
LiberationMono-Bold.ttf
  4

  0
STYLE
  5
58
330
5
100
AcDbSymbolTableRecord
100
AcDbTextStyleTableRecord
  2
LiberationMono-BoldItalic
 70
0
 40
0.0
 41
1.0
 50
0.0
 71
0
 42
2.5
  3
LiberationMono-BoldItalic.ttf
  4

  0
STYLE
  5
59
330
5
100
AcDbSymbolTableRecord
100
AcDbTextStyleTableRecord
  2
LiberationMono-Italic
 70
0
 40
0.0
 41
1.0
 50
0.0
 71
0
 42
2.5
  3
LiberationMono-Italic.ttf
  4

  0
STYLE
  5
90
330
5
100
AcDbSymbolTableRecord
100
AcDbTextStyleTableRecord
  2
ARCH-TXT
 70
0
 40
0.0
 41
1.0
 50
0.0
 71
0
 42
2.5
  3
arial.ttf
  4

  0
ENDTAB
  0
TABLE
  2
VIEW
  5
7
330
0
100
AcDbSymbolTable
 70
0
  0
ENDTAB
  0
TABLE
  2
UCS
  5
6
330
0
100
AcDbSymbolTable
 70
0
  0
ENDTAB
  0
TABLE
  2
APPID
  5
3
330
0
100
AcDbSymbolTable
 70
3
  0
APPID
  5
2A
330
3
100
AcDbSymbolTableRecord
100
AcDbRegAppTableRecord
  2
ACAD
 70
0
  0
APPID
  5
27B
330
3
100
AcDbSymbolTableRecord
100
AcDbRegAppTableRecord
  2
HATCHBACKGROUNDCOLOR
 70
0
  0
APPID
  5
27C
330
3
100
AcDbSymbolTableRecord
100
AcDbRegAppTableRecord
  2
EZDXF
 70
0
  0
ENDTAB
  0
TABLE
  2
DIMSTYLE
  5
4
330
0
100
AcDbSymbolTable
 70
13
100
AcDbDimStyleTable
  0
DIMSTYLE
105
2B
330
4
100
AcDbSymbolTableRecord
100
AcDbDimStyleTableRecord
  2
Standard
 70
0
 40
1.0
 41
2.5
 42
0.625
 43
3.75
 44
1.25
 45
0.0
 46
0.0
 47
0.0
 48
0.0
 49
2.5
140
2.5
141
2.5
142
0.0
143
0.03937007874
144
1.0
145
0.0
146
1.0
147
0.625
148
0.0
 69
0
 70
0
 71
0
 72
0
 73
0
 74
0
 75
0
 76
0
 77
1
 78
8
 79
3
170
0
171
3
172
1
173
0
174
0
175
0
176
0
177
0
178
0
179
2
271
2
272
2
273
2
274
3
275
0
276
0
277
2
278
44
279
0
280
0
281
0
282
0
283
0
284
8
285
0
286
0
288
0
289
3
290
0
371
-2
372
-2
  0
DIMSTYLE
105
73
330
4
100
AcDbSymbolTableRecord
100
AcDbDimStyleTableRecord
  2
EZDXF
 70
0
 40
1.0
 41
0.175
 42
0.125
 43
3.75
 44
0.375
 45
0.0
 46
0.0
 47
0.0
 48
0.0
 49
2.5
140
0.25
141
2.5
142
0.0
143
0.03937007874
144
100.0
145
0.0
146
0.5
147
0.1
148
0.0
 69
0
 70
0
 71
0
 72
0
 73
0
 74
0
 75
0
 76
0
 77
1
 78
12
 79
3
170
0
171
3
172
1
173
0
174
0
175
0
176
0
177
0
178
0
179
2
271
2
272
2
273
2
274
3
275
0
276
0
277
2
278
46
279
2
280
0
281
0
282
0
283
0
284
8
285
0
286
0
288
1
289
3
290
0
340
4C
342
74
371
-2
372
-2
  0
DIMSTYLE
105
7C
330
4
100
AcDbSymbolTableRecord
100
AcDbDimStyleTableRecord
  2
EZ_M_100_H25_CM
 70
0
 40
1.0
 41
0.25
 42
0.125
 43
3.75
 44
0.375
 45
0.0
 46
0.0
 47
0.0
 48
0.0
 49
2.5
140
0.25
141
2.5
142
0.125
143
0.03937007874
144
100.0
145
0.0
146
0.5
147
0.1
148
0.0
 69
0
 70
0
 71
0
 72
0
 73
0
 74
0
 75
0
 76
0
 77
1
 78
12
 79
3
170
0
171
3
172
1
173
0
174
0
175
0
176
0
177
0
178
0
179
2
271
2
272
2
273
2
274
3
275
0
276
0
277
2
278
46
279
2
280
0
281
0
282
0
283
0
284
8
285
0
286
0
288
1
289
3
290
0
340
4C
371
-2
372
-2
  0
DIMSTYLE
105
7D
330
4
100
AcDbSymbolTableRecord
100
AcDbDimStyleTableRecord
  2
EZ_M_50_H25_CM
 70
0
 40
1.0
 41
0.125
 42
0.0625
 43
3.75
 44
0.1875
 45
0.0
 46
0.0
 47
0.0
 48
0.0
 49
2.5
140
0.125
141
2.5
142
0.0625
143
0.03937007874
144
100.0
145
0.0
146
0.5
147
0.05
148
0.0
 69
0
 70
0
 71
0
 72
0
 73
0
 74
0
 75
0
 76
0
 77
1
 78
12
 79
3
170
0
171
3
172
1
173
0
174
0
175
0
176
0
177
0
178
0
179
2
271
2
272
2
273
2
274
3
275
0
276
0
277
2
278
46
279
2
280
0
281
0
282
0
283
0
284
8
285
0
286
0
288
1
289
3
290
0
340
4C
371
-2
372
-2
  0
DIMSTYLE
105
7E
330
4
100
AcDbSymbolTableRecord
100
AcDbDimStyleTableRecord
  2
EZ_M_25_H25_CM
 70
0
 40
1.0
 41
0.0625
 42
0.03125
 43
3.75
 44
0.09375
 45
0.0
 46
0.0
 47
0.0
 48
0.0
 49
2.5
140
0.0625
141
2.5
142
0.03125
143
0.03937007874
144
100.0
145
0.0
146
0.5
147
0.025
148
0.0
 69
0
 70
0
 71
0
 72
0
 73
0
 74
0
 75
0
 76
0
 77
1
 78
12
 79
3
170
0
171
3
172
1
173
0
174
0
175
0
176
0
177
0
178
0
179
2
271
2
272
2
273
2
274
3
275
0
276
0
277
2
278
46
279
2
280
0
281
0
282
0
283
0
284
8
285
0
286
0
288
1
289
3
290
0
340
4C
371
-2
372
-2
  0
DIMSTYLE
105
7F
330
4
100
AcDbSymbolTableRecord
100
AcDbDimStyleTableRecord
  2
EZ_M_20_H25_CM
 70
0
 40
1.0
 41
0.05
 42
0.025
 43
3.75
 44
0.07500000000000001
 45
0.0
 46
0.0
 47
0.0
 48
0.0
 49
2.5
140
0.05
141
2.5
142
0.025
143
0.03937007874
144
100.0
145
0.0
146
0.5
147
0.020000000000000004
148
0.0
 69
0
 70
0
 71
0
 72
0
 73
0
 74
0
 75
0
 76
0
 77
1
 78
12
 79
3
170
0
171
3
172
1
173
0
174
0
175
0
176
0
177
0
178
0
179
2
271
2
272
2
273
2
274
3
275
0
276
0
277
2
278
46
279
2
280
0
281
0
282
0
283
0
284
8
285
0
286
0
288
1
289
3
290
0
340
4C
371
-2
372
-2
  0
DIMSTYLE
105
80
330
4
100
AcDbSymbolTableRecord
100
AcDbDimStyleTableRecord
  2
EZ_M_10_H25_CM
 70
0
 40
1.0
 41
0.025
 42
0.0125
 43
3.75
 44
0.037500000000000006
 45
0.0
 46
0.0
 47
0.0
 48
0.0
 49
2.5
140
0.025
141
2.5
142
0.0125
143
0.03937007874
144
100.0
145
0.0
146
0.5
147
0.010000000000000002
148
0.0
 69
0
 70
0
 71
0
 72
0
 73
0
 74
0
 75
0
 76
0
 77
1
 78
12
 79
3
170
0
171
3
172
1
173
0
174
0
175
0
176
0
177
0
178
0
179
2
271
2
272
2
273
2
274
3
275
0
276
0
277
2
278
46
279
2
280
0
281
0
282
0
283
0
284
8
285
0
286
0
288
1
289
3
290
0
340
4C
371
-2
372
-2
  0
DIMSTYLE
105
81
330
4
100
AcDbSymbolTableRecord
100
AcDbDimStyleTableRecord
  2
EZ_M_5_H25_CM
 70
0
 40
1.0
 41
0.0125
 42
0.00625
 43
3.75
 44
0.018750000000000003
 45
0.0
 46
0.0
 47
0.0
 48
0.0
 49
2.5
140
0.0125
141
2.5
142
0.00625
143
0.03937007874
144
100.0
145
0.0
146
0.5
147
0.005000000000000001
148
0.0
 69
0
 70
0
 71
0
 72
0
 73
0
 74
0
 75
0
 76
0
 77
1
 78
12
 79
3
170
0
171
3
172
1
173
0
174
0
175
0
176
0
177
0
178
0
179
2
271
2
272
2
273
2
274
3
275
0
276
0
277
2
278
46
279
2
280
0
281
0
282
0
283
0
284
8
285
0
286
0
288
1
289
3
290
0
340
4C
371
-2
372
-2
  0
DIMSTYLE
105
82
330
4
100
AcDbSymbolTableRecord
100
AcDbDimStyleTableRecord
  2
EZ_M_1_H25_CM
 70
0
 40
1.0
 41
0.0025
 42
0.00125
 43
3.75
 44
0.00375
 45
0.0
 46
0.0
 47
0.0
 48
0.0
 49
2.5
140
0.0025
141
2.5
142
0.00125
143
0.03937007874
144
100.0
145
0.0
146
0.5
147
0.001
148
0.0
 69
0
 70
0
 71
0
 72
0
 73
0
 74
0
 75
0
 76
0
 77
1
 78
12
 79
3
170
0
171
3
172
1
173
0
174
0
175
0
176
0
177
0
178
0
179
2
271
2
272
2
273
2
274
3
275
0
276
0
277
2
278
46
279
2
280
0
281
0
282
0
283
0
284
8
285
0
286
0
288
1
289
3
290
0
340
4C
371
-2
372
-2
  0
DIMSTYLE
105
83
330
4
100
AcDbSymbolTableRecord
100
AcDbDimStyleTableRecord
  2
EZ_RADIUS
 70
0
 40
1.0
 41
0.25
 42
0.125
 43
3.75
 44
0.375
 45
0.0
 46
0.0
 47
0.0
 48
0.0
 49
2.5
140
0.25
141
0.0
142
0.0
143
0.03937007874
144
100.0
145
0.0
146
0.5
147
0.1
148
0.0
 69
0
 70
0
 71
0
 72
0
 73
0
 74
0
 75
0
 76
0
 77
1
 78
12
 79
3
170
0
171
3
172
0
173
0
174
0
175
0
176
0
177
0
178
0
179
2
271
2
272
2
273
2
274
3
275
0
276
0
277
2
278
46
279
1
280
0
281
0
282
0
283
0
284
8
285
0
286
0
288
1
289
3
290
0
340
4C
342
84
371
-2
372
-2
  0
DIMSTYLE
105
88
330
4
100
AcDbSymbolTableRecord
100
AcDbDimStyleTableRecord
  2
EZ_RADIUS_INSIDE
 70
0
 40
1.0
 41
0.25
 42
0.125
 43
3.75
 44
0.375
 45
0.0
 46
0.0
 47
0.0
 48
0.0
 49
2.5
140
0.25
141
0.0
142
0.0
143
0.03937007874
144
100.0
145
0.0
146
0.5
147
0.1
148
0.0
 69
0
 70
0
 71
0
 72
0
 73
0
 74
0
 75
0
 76
0
 77
0
 78
12
 79
3
170
0
171
3
172
0
173
0
174
1
175
0
176
0
177
0
178
0
179
2
271
2
272
2
273
2
274
3
275
0
276
0
277
2
278
46
279
0
280
0
281
0
282
0
283
0
284
8
285
0
286
0
288
1
289
0
290
0
340
4C
342
84
371
-2
372
-2
  0
DIMSTYLE
105
89
330
4
100
AcDbSymbolTableRecord
100
AcDbDimStyleTableRecord
  2
EZ_CURVED
 70
0
 40
1.0
 41
0.25
 42
0.125
 43
3.75
 44
0.375
 45
0.0
 46
0.0
 47
0.0
 48
0.0
 49
2.5
140
0.25
141
2.5
142
0.0
143
0.03937007874
144
100.0
145
0.0
146
0.5
147
0.1
148
0.0
 69
0
 70
0
 71
0
 72
0
 73
0
 74
0
 75
0
 76
0
 77
1
 78
12
 79
2
 90
2
170
0
171
3
172
1
173
0
174
0
175
0
176
0
177
0
178
0
179
2
271
2
272
2
273
2
274
3
275
0
276
0
277
2
278
46
279
2
280
0
281
0
282
0
283
0
284
8
285
0
286
0
288
1
289
3
290
0
340
4C
371
-2
372
-2
  0
DIMSTYLE
105
91
330
4
100
AcDbSymbolTableRecord
100
AcDbDimStyleTableRecord
  2
ARCH
 70
0
 40
1.0
 41
2.5
 42
1.5
 43
3.75
 44
1.5
 45
0.0
 46
0.0
 47
0.0
 48
0.0
 49
2.5
140
3.0
141
2.5
142
0.0
143
0.03937007874
144
1.0
145
0.0
146
1.0
147
1.0
148
0.0
 69
0
 70
0
 71
0
 72
0
 73
1
 74
1
 75
0
 76
0
 77
0
 78
1
 79
3
170
0
171
3
172
1
173
0
174
1
175
0
176
1
177
1
178
7
179
2
271
4
272
2
273
2
274
3
275
0
276
0
277
4
278
44
279
0
280
0
281
0
282
0
283
0
284
8
285
0
286
0
288
0
289
3
290
0
340
90
371
-2
372
-2
  0
ENDTAB
  0
TABLE
  2
BLOCK_RECORD
  5
9
330
0
100
AcDbSymbolTable
 70
17
  0
BLOCK_RECORD
  5
17
330
9
100
AcDbSymbolTableRecord
100
AcDbBlockTableRecord
  2
*Model_Space
340
1A
 70
0
280
1
281
0
  0
BLOCK_RECORD
  5
1B
330
9
100
AcDbSymbolTableRecord
100
AcDbBlockTableRecord
  2
*Paper_Space
340
1E
 70
0
280
1
281
0
  0
BLOCK_RECORD
  5
74
330
9
100
AcDbSymbolTableRecord
100
AcDbBlockTableRecord
  2
_ARCHTICK
340
0
 70
0
280
1
281
0
  0
BLOCK_RECORD
  5
78
330
9
100
AcDbSymbolTableRecord
100
AcDbBlockTableRecord
  2
_CLOSEDFILLED
340
0
 70
0
280
1
281
0
  0
BLOCK_RECORD
  5
84
330
9
100
AcDbSymbolTableRecord
100
AcDbBlockTableRecord
  2
_CLOSEDBLANK
340
0
 70
0
280
1
281
0
  0
BLOCK_RECORD
  5
BB
330
9
100
AcDbSymbolTableRecord
100
AcDbBlockTableRecord
  2
*D1
340
0
 70
0
280
1
281
0
  0
BLOCK_RECORD
  5
CB
330
9
100
AcDbSymbolTableRecord
100
AcDbBlockTableRecord
  2
*D2
340
0
 70
0
280
1
281
0
  0
BLOCK_RECORD
  5
DB
330
9
100
AcDbSymbolTableRecord
100
AcDbBlockTableRecord
  2
*D3
340
0
 70
0
280
1
281
0
  0
BLOCK_RECORD
  5
EB
330
9
100
AcDbSymbolTableRecord
100
AcDbBlockTableRecord
  2
*D4
340
0
 70
0
280
1
281
0
  0
BLOCK_RECORD
  5
FB
330
9
100
AcDbSymbolTableRecord
100
AcDbBlockTableRecord
  2
*D5
340
0
 70
0
280
1
281
0
  0
BLOCK_RECORD
  5
1B1
330
9
100
AcDbSymbolTableRecord
100
AcDbBlockTableRecord
  2
*D6
340
0
 70
0
280
1
281
0
  0
BLOCK_RECORD
  5
1C1
330
9
100
AcDbSymbolTableRecord
100
AcDbBlockTableRecord
  2
*D7
340
0
 70
0
280
1
281
0
  0
BLOCK_RECORD
  5
1D1
330
9
100
AcDbSymbolTableRecord
100
AcDbBlockTableRecord
  2
*D8
340
0
 70
0
280
1
281
0
  0
BLOCK_RECORD
  5
207
330
9
100
AcDbSymbolTableRecord
100
AcDbBlockTableRecord
  2
*D9
340
0
 70
0
280
1
281
0
  0
BLOCK_RECORD
  5
217
330
9
100
AcDbSymbolTableRecord
100
AcDbBlockTableRecord
  2
*D10
340
0
 70
0
280
1
281
0
  0
BLOCK_RECORD
  5
227
330
9
100
AcDbSymbolTableRecord
100
AcDbBlockTableRecord
  2
*D11
340
0
 70
0
280
1
281
0
  0
BLOCK_RECORD
  5
237
330
9
100
AcDbSymbolTableRecord
100
AcDbBlockTableRecord
  2
*D12
340
0
 70
0
280
1
281
0
  0
ENDTAB
  0
ENDSEC
  0
SECTION
  2
BLOCKS
  0
BLOCK
  5
18
330
17
100
AcDbEntity
  8
0
100
AcDbBlockBegin
  2
*Model_Space
 70
0
 10
0.0
 20
0.0
 30
0.0
  3
*Model_Space
  1

  0
ENDBLK
  5
19
330
17
100
AcDbEntity
  8
0
100
AcDbBlockEnd
  0
BLOCK
  5
1C
330
1B
100
AcDbEntity
  8
0
100
AcDbBlockBegin
  2
*Paper_Space
 70
0
 10
0.0
 20
0.0
 30
0.0
  3
*Paper_Space
  1

  0
ENDBLK
  5
1D
330
1B
100
AcDbEntity
  8
0
100
AcDbBlockEnd
  0
BLOCK
  5
75
330
74
100
AcDbEntity
  8
0
100
AcDbBlockBegin
  2
_ARCHTICK
 70
0
 10
0.0
 20
0.0
 30
0.0
  3
_ARCHTICK
  1

  0
LWPOLYLINE
  5
77
330
74
100
AcDbEntity
  8
0
  6
BYBLOCK
 62
0
100
AcDbPolyline
 90
2
 70
0
 43
0.15
 10
-0.5
 20
-0.5
 10
0.5
 20
0.5
  0
ENDBLK
  5
76
330
74
100
AcDbEntity
  8
0
100
AcDbBlockEnd
  0
BLOCK
  5
79
330
78
100
AcDbEntity
  8
0
100
AcDbBlockBegin
  2
_CLOSEDFILLED
 70
0
 10
0.0
 20
0.0
 30
0.0
  3
_CLOSEDFILLED
  1

  0
SOLID
  5
7B
330
78
100
AcDbEntity
  8
0
  6
BYBLOCK
 62
0
100
AcDbTrace
 10
-1.0
 20
0.16439898372402537
 30
0.0
 11
0.0
 21
0.0
 31
0.0
 12
-1.0
 22
-0.16439898372402537
 32
0.0
 13
-1.0
 23
-0.16439898372402537
 33
0.0
  0
ENDBLK
  5
7A
330
78
100
AcDbEntity
  8
0
100
AcDbBlockEnd
  0
BLOCK
  5
85
330
84
100
AcDbEntity
  8
0
100
AcDbBlockBegin
  2
_CLOSEDBLANK
 70
0
 10
0.0
 20
0.0
 30
0.0
  3
_CLOSEDBLANK
  1

  0
LWPOLYLINE
  5
87
330
84
100
AcDbEntity
  8
0
  6
BYBLOCK
 62
0
100
AcDbPolyline
 90
3
 70
1
 10
-1.0
 20
0.16439898372402537
 10
0.0
 20
0.0
 10
-1.0
 20
-0.16439898372402537
  0
ENDBLK
  5
86
330
84
100
AcDbEntity
  8
0
100
AcDbBlockEnd
  0
BLOCK
  5
BC
330
BB
100
AcDbEntity
  8
0
100
AcDbBlockBegin
  2
*D1
 70
1
 10
0.0
 20
0.0
 30
0.0
  3
*D1
  1

  0
LINE
  5
BE
330
BB
100
AcDbEntity
  8
0
 62
1
100
AcDbLine
 10
73.5
 20
252.66
 30
0.0
 11
73.5
 21
234.66
 31
0.0
  0
LINE
  5
BF
330
BB
100
AcDbEntity
  8
0
 62
1
100
AcDbLine
 10
193.5
 20
252.66
 30
0.0
 11
193.5
 21
234.66
 31
0.0
  0
INSERT
  5
C0
330
BB
100
AcDbEntity
  8
A-DIMS
 62
1
100
AcDbBlockReference
  2
_CLOSEDFILLED
 10
73.5
 20
236.16
 30
0.0
 41
2.5
 42
2.5
 50
180.0
  0
INSERT
  5
C2
330
BB
100
AcDbEntity
  8
A-DIMS
 62
1
100
AcDbBlockReference
  2
_CLOSEDFILLED
 10
193.5
 20
236.16
 30
0.0
 41
2.5
 42
2.5
  0
LINE
  5
C4
330
BB
100
AcDbEntity
  8
0
 62
1
100
AcDbLine
 10
76.0
 20
236.16
 30
0.0
 11
124.5
 21
236.16
 31
0.0
  0
LINE
  5
C5
330
BB
100
AcDbEntity
  8
0
 62
1
100
AcDbLine
 10
142.5
 20
236.16
 30
0.0
 11
191.0
 21
236.16
 31
0.0
  0
MTEXT
  5
C6
330
BB
100
AcDbEntity
  8
A-DIMS
 62
7
100
AcDbMText
 10
133.5
 20
236.16
 30
0.0
 40
3.0
 71
5
  1
10'-0"
  7
ARCH-TXT
  0
POINT
  5
C7
330
BB
100
AcDbEntity
  8
Defpoints
100
AcDbPoint
 10
73.5
 20
236.16
 30
0.0
  0
POINT
  5
C8
330
BB
100
AcDbEntity
  8
Defpoints
100
AcDbPoint
 10
73.5
 20
254.16
 30
0.0
  0
POINT
  5
C9
330
BB
100
AcDbEntity
  8
Defpoints
100
AcDbPoint
 10
193.5
 20
254.16
 30
0.0
  0
ENDBLK
  5
BD
330
BB
100
AcDbEntity
  8
0
100
AcDbBlockEnd
  0
BLOCK
  5
CC
330
CB
100
AcDbEntity
  8
0
100
AcDbBlockBegin
  2
*D2
 70
1
 10
0.0
 20
0.0
 30
0.0
  3
*D2
  1

  0
LINE
  5
CE
330
CB
100
AcDbEntity
  8
0
 62
1
100
AcDbLine
 10
72.0
 20
254.16
 30
0.0
 11
54.0
 21
254.16
 31
0.0
  0
LINE
  5
CF
330
CB
100
AcDbEntity
  8
0
 62
1
100
AcDbLine
 10
72.0
 20
374.15999999999997
 30
0.0
 11
54.0
 21
374.15999999999997
 31
0.0
  0
INSERT
  5
D0
330
CB
100
AcDbEntity
  8
A-DIMS
 62
1
100
AcDbBlockReference
  2
_CLOSEDFILLED
 10
55.5
 20
254.16
 30
0.0
 41
2.5
 42
2.5
 50
270.0
  0
INSERT
  5
D2
330
CB
100
AcDbEntity
  8
A-DIMS
 62
1
100
AcDbBlockReference
  2
_CLOSEDFILLED
 10
55.5
 20
374.15999999999997
 30
0.0
 41
2.5
 42
2.5
 50
90.0
  0
LINE
  5
D4
330
CB
100
AcDbEntity
  8
0
 62
1
100
AcDbLine
 10
55.5
 20
256.65999999999997
 30
0.0
 11
55.5
 21
311.90999999999997
 31
0.0
  0
LINE
  5
D5
330
CB
100
AcDbEntity
  8
0
 62
1
100
AcDbLine
 10
55.5
 20
316.40999999999997
 30
0.0
 11
55.5
 21
371.65999999999997
 31
0.0
  0
MTEXT
  5
D6
330
CB
100
AcDbEntity
  8
A-DIMS
 62
7
100
AcDbMText
 10
55.5
 20
314.15999999999997
 30
0.0
 40
3.0
 71
5
  1
10'-0"
  7
ARCH-TXT
  0
POINT
  5
D7
330
CB
100
AcDbEntity
  8
Defpoints
100
AcDbPoint
 10
55.5
 20
254.16
 30
0.0
  0
POINT
  5
D8
330
CB
100
AcDbEntity
  8
Defpoints
100
AcDbPoint
 10
73.5
 20
254.16
 30
0.0
  0
POINT
  5
D9
330
CB
100
AcDbEntity
  8
Defpoints
100
AcDbPoint
 10
73.5
 20
374.15999999999997
 30
0.0
  0
ENDBLK
  5
CD
330
CB
100
AcDbEntity
  8
0
100
AcDbBlockEnd
  0
BLOCK
  5
DC
330
DB
100
AcDbEntity
  8
0
100
AcDbBlockBegin
  2
*D3
 70
1
 10
0.0
 20
0.0
 30
0.0
  3
*D3
  1

  0
LINE
  5
DE
330
DB
100
AcDbEntity
  8
0
 62
1
100
AcDbLine
 10
93.0
 20
327.65999999999997
 30
0.0
 11
93.0
 21
391.65999999999997
 31
0.0
  0
LINE
  5
DF
330
DB
100
AcDbEntity
  8
0
 62
1
100
AcDbLine
 10
174.0
 20
327.65999999999997
 30
0.0
 11
174.0
 21
391.65999999999997
 31
0.0
  0
INSERT
  5
E0
330
DB
100
AcDbEntity
  8
A-DIMS
 62
1
100
AcDbBlockReference
  2
_CLOSEDFILLED
 10
93.0
 20
390.15999999999997
 30
0.0
 41
2.5
 42
2.5
 50
180.0
  0
INSERT
  5
E2
330
DB
100
AcDbEntity
  8
A-DIMS
 62
1
100
AcDbBlockReference
  2
_CLOSEDFILLED
 10
174.0
 20
390.15999999999997
 30
0.0
 41
2.5
 42
2.5
  0
LINE
  5
E4
330
DB
100
AcDbEntity
  8
0
 62
1
100
AcDbLine
 10
95.5
 20
390.15999999999997
 30
0.0
 11
126.0
 21
390.15999999999997
 31
0.0
  0
LINE
  5
E5
330
DB
100
AcDbEntity
  8
0
 62
1
100
AcDbLine
 10
141.0
 20
390.15999999999997
 30
0.0
 11
171.5
 21
390.15999999999997
 31
0.0
  0
MTEXT
  5
E6
330
DB
100
AcDbEntity
  8
A-DIMS
 62
7
100
AcDbMText
 10
133.5
 20
390.15999999999997
 30
0.0
 40
3.0
 71
5
  1
6'-9"
  7
ARCH-TXT
  0
POINT
  5
E7
330
DB
100
AcDbEntity
  8
Defpoints
100
AcDbPoint
 10
93.0
 20
390.15999999999997
 30
0.0
  0
POINT
  5
E8
330
DB
100
AcDbEntity
  8
Defpoints
100
AcDbPoint
 10
93.0
 20
326.15999999999997
 30
0.0
  0
POINT
  5
E9
330
DB
100
AcDbEntity
  8
Defpoints
100
AcDbPoint
 10
174.0
 20
326.15999999999997
 30
0.0
  0
ENDBLK
  5
DD
330
DB
100
AcDbEntity
  8
0
100
AcDbBlockEnd
  0
BLOCK
  5
EC
330
EB
100
AcDbEntity
  8
0
100
AcDbBlockBegin
  2
*D4
 70
1
 10
0.0
 20
0.0
 30
0.0
  3
*D4
  1

  0
LINE
  5
EE
330
EB
100
AcDbEntity
  8
0
 62
1
100
AcDbLine
 10
195.0
 20
311.15999999999997
 30
0.0
 11
213.0
 21
311.15999999999997
 31
0.0
  0
LINE
  5
EF
330
EB
100
AcDbEntity
  8
0
 62
1
100
AcDbLine
 10
195.0
 20
374.15999999999997
 30
0.0
 11
213.0
 21
374.15999999999997
 31
0.0
  0
INSERT
  5
F0
330
EB
100
AcDbEntity
  8
A-DIMS
 62
1
100
AcDbBlockReference
  2
_CLOSEDFILLED
 10
211.5
 20
311.15999999999997
 30
0.0
 41
2.5
 42
2.5
 50
270.0
  0
INSERT
  5
F2
330
EB
100
AcDbEntity
  8
A-DIMS
 62
1
100
AcDbBlockReference
  2
_CLOSEDFILLED
 10
211.5
 20
374.15999999999997
 30
0.0
 41
2.5
 42
2.5
 50
90.0
  0
LINE
  5
F4
330
EB
100
AcDbEntity
  8
0
 62
1
100
AcDbLine
 10
211.5
 20
313.65999999999997
 30
0.0
 11
211.5
 21
340.40999999999997
 31
0.0
  0
LINE
  5
F5
330
EB
100
AcDbEntity
  8
0
 62
1
100
AcDbLine
 10
211.5
 20
344.90999999999997
 30
0.0
 11
211.5
 21
371.65999999999997
 31
0.0
  0
MTEXT
  5
F6
330
EB
100
AcDbEntity
  8
A-DIMS
 62
7
100
AcDbMText
 10
211.5
 20
342.65999999999997
 30
0.0
 40
3.0
 71
5
  1
5'-3"
  7
ARCH-TXT
  0
POINT
  5
F7
330
EB
100
AcDbEntity
  8
Defpoints
100
AcDbPoint
 10
211.5
 20
311.15999999999997
 30
0.0
  0
POINT
  5
F8
330
EB
100
AcDbEntity
  8
Defpoints
100
AcDbPoint
 10
193.5
 20
311.15999999999997
 30
0.0
  0
POINT
  5
F9
330
EB
100
AcDbEntity
  8
Defpoints
100
AcDbPoint
 10
193.5
 20
374.15999999999997
 30
0.0
  0
ENDBLK
  5
ED
330
EB
100
AcDbEntity
  8
0
100
AcDbBlockEnd
  0
BLOCK
  5
FC
330
FB
100
AcDbEntity
  8
0
100
AcDbBlockBegin
  2
*D5
 70
1
 10
0.0
 20
0.0
 30
0.0
  3
*D5
  1

  0
LINE
  5
FE
330
FB
100
AcDbEntity
  8
0
 62
1
100
AcDbLine
 10
91.5
 20
326.15999999999997
 30
0.0
 11
84.75
 21
326.15999999999997
 31
0.0
  0
LINE
  5
FF
330
FB
100
AcDbEntity
  8
0
 62
1
100
AcDbLine
 10
91.5
 20
374.15999999999997
 30
0.0
 11
84.75
 21
374.15999999999997
 31
0.0
  0
INSERT
  5
100
330
FB
100
AcDbEntity
  8
A-DIMS
 62
1
100
AcDbBlockReference
  2
_CLOSEDFILLED
 10
86.25
 20
326.15999999999997
 30
0.0
 41
2.5
 42
2.5
 50
270.0
  0
INSERT
  5
102
330
FB
100
AcDbEntity
  8
A-DIMS
 62
1
100
AcDbBlockReference
  2
_CLOSEDFILLED
 10
86.25
 20
374.15999999999997
 30
0.0
 41
2.5
 42
2.5
 50
90.0
  0
LINE
  5
104
330
FB
100
AcDbEntity
  8
0
 62
1
100
AcDbLine
 10
86.25
 20
328.65999999999997
 30
0.0
 11
86.25
 21
347.90999999999997
 31
0.0
  0
LINE
  5
105
330
FB
100
AcDbEntity
  8
0
 62
1
100
AcDbLine
 10
86.25
 20
352.40999999999997
 30
0.0
 11
86.25
 21
371.65999999999997
 31
0.0
  0
MTEXT
  5
106
330
FB
100
AcDbEntity
  8
A-DIMS
 62
7
100
AcDbMText
 10
86.25
 20
350.15999999999997
 30
0.0
 40
3.0
 71
5
  1
4'-0"
  7
ARCH-TXT
  0
POINT
  5
107
330
FB
100
AcDbEntity
  8
Defpoints
100
AcDbPoint
 10
86.25
 20
326.15999999999997
 30
0.0
  0
POINT
  5
108
330
FB
100
AcDbEntity
  8
Defpoints
100
AcDbPoint
 10
93.0
 20
326.15999999999997
 30
0.0
  0
POINT
  5
109
330
FB
100
AcDbEntity
  8
Defpoints
100
AcDbPoint
 10
93.0
 20
374.15999999999997
 30
0.0
  0
ENDBLK
  5
FD
330
FB
100
AcDbEntity
  8
0
100
AcDbBlockEnd
  0
BLOCK
  5
1B2
330
1B1
100
AcDbEntity
  8
0
100
AcDbBlockBegin
  2
*D6
 70
1
 10
0.0
 20
0.0
 30
0.0
  3
*D6
  1

  0
LINE
  5
1B4
330
1B1
100
AcDbEntity
  8
0
 62
1
100
AcDbLine
 10
73.5
 20
72.9
 30
0.0
 11
73.5
 21
56.900000000000006
 31
0.0
  0
LINE
  5
1B5
330
1B1
100
AcDbEntity
  8
0
 62
1
100
AcDbLine
 10
193.5
 20
72.9
 30
0.0
 11
193.5
 21
56.900000000000006
 31
0.0
  0
INSERT
  5
1B6
330
1B1
100
AcDbEntity
  8
A-DIMS
 62
1
100
AcDbBlockReference
  2
_CLOSEDFILLED
 10
73.5
 20
58.400000000000006
 30
0.0
 41
2.5
 42
2.5
 50
180.0
  0
INSERT
  5
1B8
330
1B1
100
AcDbEntity
  8
A-DIMS
 62
1
100
AcDbBlockReference
  2
_CLOSEDFILLED
 10
193.5
 20
58.400000000000006
 30
0.0
 41
2.5
 42
2.5
  0
LINE
  5
1BA
330
1B1
100
AcDbEntity
  8
0
 62
1
100
AcDbLine
 10
76.0
 20
58.400000000000006
 30
0.0
 11
124.5
 21
58.400000000000006
 31
0.0
  0
LINE
  5
1BB
330
1B1
100
AcDbEntity
  8
0
 62
1
100
AcDbLine
 10
142.5
 20
58.400000000000006
 30
0.0
 11
191.0
 21
58.400000000000006
 31
0.0
  0
MTEXT
  5
1BC
330
1B1
100
AcDbEntity
  8
A-DIMS
 62
7
100
AcDbMText
 10
133.5
 20
58.400000000000006
 30
0.0
 40
3.0
 71
5
  1
10'-0"
  7
ARCH-TXT
  0
POINT
  5
1BD
330
1B1
100
AcDbEntity
  8
Defpoints
100
AcDbPoint
 10
73.5
 20
58.400000000000006
 30
0.0
  0
POINT
  5
1BE
330
1B1
100
AcDbEntity
  8
Defpoints
100
AcDbPoint
 10
73.5
 20
74.4
 30
0.0
  0
POINT
  5
1BF
330
1B1
100
AcDbEntity
  8
Defpoints
100
AcDbPoint
 10
193.5
 20
74.4
 30
0.0
  0
ENDBLK
  5
1B3
330
1B1
100
AcDbEntity
  8
0
100
AcDbBlockEnd
  0
BLOCK
  5
1C2
330
1C1
100
AcDbEntity
  8
0
100
AcDbBlockBegin
  2
*D7
 70
1
 10
0.0
 20
0.0
 30
0.0
  3
*D7
  1

  0
LINE
  5
1C4
330
1C1
100
AcDbEntity
  8
0
 62
1
100
AcDbLine
 10
72.0
 20
74.4
 30
0.0
 11
56.0
 21
74.4
 31
0.0
  0
LINE
  5
1C5
330
1C1
100
AcDbEntity
  8
0
 62
1
100
AcDbLine
 10
72.0
 20
164.4
 30
0.0
 11
56.0
 21
164.4
 31
0.0
  0
INSERT
  5
1C6
330
1C1
100
AcDbEntity
  8
A-DIMS
 62
1
100
AcDbBlockReference
  2
_CLOSEDFILLED
 10
57.5
 20
74.4
 30
0.0
 41
2.5
 42
2.5
 50
270.0
  0
INSERT
  5
1C8
330
1C1
100
AcDbEntity
  8
A-DIMS
 62
1
100
AcDbBlockReference
  2
_CLOSEDFILLED
 10
57.5
 20
164.4
 30
0.0
 41
2.5
 42
2.5
 50
90.0
  0
LINE
  5
1CA
330
1C1
100
AcDbEntity
  8
0
 62
1
100
AcDbLine
 10
57.5
 20
76.9
 30
0.0
 11
57.5
 21
117.15
 31
0.0
  0
LINE
  5
1CB
330
1C1
100
AcDbEntity
  8
0
 62
1
100
AcDbLine
 10
57.5
 20
121.65
 30
0.0
 11
57.5
 21
161.9
 31
0.0
  0
MTEXT
  5
1CC
330
1C1
100
AcDbEntity
  8
A-DIMS
 62
7
100
AcDbMText
 10
57.5
 20
119.4
 30
0.0
 40
3.0
 71
5
  1
7'-6"
  7
ARCH-TXT
  0
POINT
  5
1CD
330
1C1
100
AcDbEntity
  8
Defpoints
100
AcDbPoint
 10
57.5
 20
74.4
 30
0.0
  0
POINT
  5
1CE
330
1C1
100
AcDbEntity
  8
Defpoints
100
AcDbPoint
 10
73.5
 20
74.4
 30
0.0
  0
POINT
  5
1CF
330
1C1
100
AcDbEntity
  8
Defpoints
100
AcDbPoint
 10
73.5
 20
164.4
 30
0.0
  0
ENDBLK
  5
1C3
330
1C1
100
AcDbEntity
  8
0
100
AcDbBlockEnd
  0
BLOCK
  5
1D2
330
1D1
100
AcDbEntity
  8
0
100
AcDbBlockBegin
  2
*D8
 70
1
 10
0.0
 20
0.0
 30
0.0
  3
*D8
  1

  0
LINE
  5
1D4
330
1D1
100
AcDbEntity
  8
0
 62
1
100
AcDbLine
 10
175.5
 20
74.4
 30
0.0
 11
211.0
 21
74.4
 31
0.0
  0
LINE
  5
1D5
330
1D1
100
AcDbEntity
  8
0
 62
1
100
AcDbLine
 10
175.5
 20
170.4
 30
0.0
 11
211.0
 21
170.4
 31
0.0
  0
INSERT
  5
1D6
330
1D1
100
AcDbEntity
  8
A-DIMS
 62
1
100
AcDbBlockReference
  2
_CLOSEDFILLED
 10
209.5
 20
74.4
 30
0.0
 41
2.5
 42
2.5
 50
270.0
  0
INSERT
  5
1D8
330
1D1
100
AcDbEntity
  8
A-DIMS
 62
1
100
AcDbBlockReference
  2
_CLOSEDFILLED
 10
209.5
 20
170.4
 30
0.0
 41
2.5
 42
2.5
 50
90.0
  0
LINE
  5
1DA
330
1D1
100
AcDbEntity
  8
0
 62
1
100
AcDbLine
 10
209.5
 20
76.9
 30
0.0
 11
209.5
 21
120.15
 31
0.0
  0
LINE
  5
1DB
330
1D1
100
AcDbEntity
  8
0
 62
1
100
AcDbLine
 10
209.5
 20
124.65
 30
0.0
 11
209.5
 21
167.9
 31
0.0
  0
MTEXT
  5
1DC
330
1D1
100
AcDbEntity
  8
A-DIMS
 62
7
100
AcDbMText
 10
209.5
 20
122.4
 30
0.0
 40
3.0
 71
5
  1
8'-0"
  7
ARCH-TXT
  0
POINT
  5
1DD
330
1D1
100
AcDbEntity
  8
Defpoints
100
AcDbPoint
 10
209.5
 20
74.4
 30
0.0
  0
POINT
  5
1DE
330
1D1
100
AcDbEntity
  8
Defpoints
100
AcDbPoint
 10
174.0
 20
74.4
 30
0.0
  0
POINT
  5
1DF
330
1D1
100
AcDbEntity
  8
Defpoints
100
AcDbPoint
 10
174.0
 20
170.4
 30
0.0
  0
ENDBLK
  5
1D3
330
1D1
100
AcDbEntity
  8
0
100
AcDbBlockEnd
  0
BLOCK
  5
208
330
207
100
AcDbEntity
  8
0
100
AcDbBlockBegin
  2
*D9
 70
1
 10
0.0
 20
0.0
 30
0.0
  3
*D9
  1

  0
LINE
  5
20A
330
207
100
AcDbEntity
  8
0
 62
1
100
AcDbLine
 10
276.0
 20
72.9
 30
0.0
 11
276.0
 21
56.900000000000006
 31
0.0
  0
LINE
  5
20B
330
207
100
AcDbEntity
  8
0
 62
1
100
AcDbLine
 10
396.0
 20
72.9
 30
0.0
 11
396.0
 21
56.900000000000006
 31
0.0
  0
INSERT
  5
20C
330
207
100
AcDbEntity
  8
A-DIMS
 62
1
100
AcDbBlockReference
  2
_CLOSEDFILLED
 10
276.0
 20
58.400000000000006
 30
0.0
 41
2.5
 42
2.5
 50
180.0
  0
INSERT
  5
20E
330
207
100
AcDbEntity
  8
A-DIMS
 62
1
100
AcDbBlockReference
  2
_CLOSEDFILLED
 10
396.0
 20
58.400000000000006
 30
0.0
 41
2.5
 42
2.5
  0
LINE
  5
210
330
207
100
AcDbEntity
  8
0
 62
1
100
AcDbLine
 10
278.5
 20
58.400000000000006
 30
0.0
 11
327.0
 21
58.400000000000006
 31
0.0
  0
LINE
  5
211
330
207
100
AcDbEntity
  8
0
 62
1
100
AcDbLine
 10
345.0
 20
58.400000000000006
 30
0.0
 11
393.5
 21
58.400000000000006
 31
0.0
  0
MTEXT
  5
212
330
207
100
AcDbEntity
  8
A-DIMS
 62
7
100
AcDbMText
 10
336.0
 20
58.400000000000006
 30
0.0
 40
3.0
 71
5
  1
10'-0"
  7
ARCH-TXT
  0
POINT
  5
213
330
207
100
AcDbEntity
  8
Defpoints
100
AcDbPoint
 10
276.0
 20
58.400000000000006
 30
0.0
  0
POINT
  5
214
330
207
100
AcDbEntity
  8
Defpoints
100
AcDbPoint
 10
276.0
 20
74.4
 30
0.0
  0
POINT
  5
215
330
207
100
AcDbEntity
  8
Defpoints
100
AcDbPoint
 10
396.0
 20
74.4
 30
0.0
  0
ENDBLK
  5
209
330
207
100
AcDbEntity
  8
0
100
AcDbBlockEnd
  0
BLOCK
  5
218
330
217
100
AcDbEntity
  8
0
100
AcDbBlockBegin
  2
*D10
 70
1
 10
0.0
 20
0.0
 30
0.0
  3
*D10
  1

  0
LINE
  5
21A
330
217
100
AcDbEntity
  8
0
 62
1
100
AcDbLine
 10
286.5
 20
72.9
 30
0.0
 11
286.5
 21
46.900000000000006
 31
0.0
  0
LINE
  5
21B
330
217
100
AcDbEntity
  8
0
 62
1
100
AcDbLine
 10
396.0
 20
72.9
 30
0.0
 11
396.0
 21
46.900000000000006
 31
0.0
  0
INSERT
  5
21C
330
217
100
AcDbEntity
  8
A-DIMS
 62
1
100
AcDbBlockReference
  2
_CLOSEDFILLED
 10
286.5
 20
48.400000000000006
 30
0.0
 41
2.5
 42
2.5
 50
180.0
  0
INSERT
  5
21E
330
217
100
AcDbEntity
  8
A-DIMS
 62
1
100
AcDbBlockReference
  2
_CLOSEDFILLED
 10
396.0
 20
48.400000000000006
 30
0.0
 41
2.5
 42
2.5
  0
LINE
  5
220
330
217
100
AcDbEntity
  8
0
 62
1
100
AcDbLine
 10
289.0
 20
48.400000000000006
 30
0.0
 11
327.75
 21
48.400000000000006
 31
0.0
  0
LINE
  5
221
330
217
100
AcDbEntity
  8
0
 62
1
100
AcDbLine
 10
354.75
 20
48.400000000000006
 30
0.0
 11
393.5
 21
48.400000000000006
 31
0.0
  0
MTEXT
  5
222
330
217
100
AcDbEntity
  8
A-DIMS
 62
7
100
AcDbMText
 10
341.25
 20
48.400000000000006
 30
0.0
 40
3.0
 71
5
  1
9'-1 1/2"
  7
ARCH-TXT
  0
POINT
  5
223
330
217
100
AcDbEntity
  8
Defpoints
100
AcDbPoint
 10
286.5
 20
48.400000000000006
 30
0.0
  0
POINT
  5
224
330
217
100
AcDbEntity
  8
Defpoints
100
AcDbPoint
 10
286.5
 20
74.4
 30
0.0
  0
POINT
  5
225
330
217
100
AcDbEntity
  8
Defpoints
100
AcDbPoint
 10
396.0
 20
74.4
 30
0.0
  0
ENDBLK
  5
219
330
217
100
AcDbEntity
  8
0
100
AcDbBlockEnd
  0
BLOCK
  5
228
330
227
100
AcDbEntity
  8
0
100
AcDbBlockBegin
  2
*D11
 70
1
 10
0.0
 20
0.0
 30
0.0
  3
*D11
  1

  0
LINE
  5
22A
330
227
100
AcDbEntity
  8
0
 62
1
100
AcDbLine
 10
274.5
 20
74.4
 30
0.0
 11
258.5
 21
74.4
 31
0.0
  0
LINE
  5
22B
330
227
100
AcDbEntity
  8
0
 62
1
100
AcDbLine
 10
274.5
 20
170.4
 30
0.0
 11
258.5
 21
170.4
 31
0.0
  0
INSERT
  5
22C
330
227
100
AcDbEntity
  8
A-DIMS
 62
1
100
AcDbBlockReference
  2
_CLOSEDFILLED
 10
260.0
 20
74.4
 30
0.0
 41
2.5
 42
2.5
 50
270.0
  0
INSERT
  5
22E
330
227
100
AcDbEntity
  8
A-DIMS
 62
1
100
AcDbBlockReference
  2
_CLOSEDFILLED
 10
260.0
 20
170.4
 30
0.0
 41
2.5
 42
2.5
 50
90.0
  0
LINE
  5
230
330
227
100
AcDbEntity
  8
0
 62
1
100
AcDbLine
 10
260.0
 20
76.9
 30
0.0
 11
260.0
 21
120.15
 31
0.0
  0
LINE
  5
231
330
227
100
AcDbEntity
  8
0
 62
1
100
AcDbLine
 10
260.0
 20
124.65
 30
0.0
 11
260.0
 21
167.9
 31
0.0
  0
MTEXT
  5
232
330
227
100
AcDbEntity
  8
A-DIMS
 62
7
100
AcDbMText
 10
260.0
 20
122.4
 30
0.0
 40
3.0
 71
5
  1
8'-0"
  7
ARCH-TXT
  0
POINT
  5
233
330
227
100
AcDbEntity
  8
Defpoints
100
AcDbPoint
 10
260.0
 20
74.4
 30
0.0
  0
POINT
  5
234
330
227
100
AcDbEntity
  8
Defpoints
100
AcDbPoint
 10
276.0
 20
74.4
 30
0.0
  0
POINT
  5
235
330
227
100
AcDbEntity
  8
Defpoints
100
AcDbPoint
 10
276.0
 20
170.4
 30
0.0
  0
ENDBLK
  5
229
330
227
100
AcDbEntity
  8
0
100
AcDbBlockEnd
  0
BLOCK
  5
238
330
237
100
AcDbEntity
  8
0
100
AcDbBlockBegin
  2
*D12
 70
1
 10
0.0
 20
0.0
 30
0.0
  3
*D12
  1

  0
LINE
  5
23A
330
237
100
AcDbEntity
  8
0
 62
1
100
AcDbLine
 10
397.5
 20
74.4
 30
0.0
 11
413.5
 21
74.4
 31
0.0
  0
LINE
  5
23B
330
237
100
AcDbEntity
  8
0
 62
1
100
AcDbLine
 10
397.5
 20
164.4
 30
0.0
 11
413.5
 21
164.4
 31
0.0
  0
INSERT
  5
23C
330
237
100
AcDbEntity
  8
A-DIMS
 62
1
100
AcDbBlockReference
  2
_CLOSEDFILLED
 10
412.0
 20
74.4
 30
0.0
 41
2.5
 42
2.5
 50
270.0
  0
INSERT
  5
23E
330
237
100
AcDbEntity
  8
A-DIMS
 62
1
100
AcDbBlockReference
  2
_CLOSEDFILLED
 10
412.0
 20
164.4
 30
0.0
 41
2.5
 42
2.5
 50
90.0
  0
LINE
  5
240
330
237
100
AcDbEntity
  8
0
 62
1
100
AcDbLine
 10
412.0
 20
76.9
 30
0.0
 11
412.0
 21
117.15
 31
0.0
  0
LINE
  5
241
330
237
100
AcDbEntity
  8
0
 62
1
100
AcDbLine
 10
412.0
 20
121.65
 30
0.0
 11
412.0
 21
161.9
 31
0.0
  0
MTEXT
  5
242
330
237
100
AcDbEntity
  8
A-DIMS
 62
7
100
AcDbMText
 10
412.0
 20
119.4
 30
0.0
 40
3.0
 71
5
  1
7'-6"
  7
ARCH-TXT
  0
POINT
  5
243
330
237
100
AcDbEntity
  8
Defpoints
100
AcDbPoint
 10
412.0
 20
74.4
 30
0.0
  0
POINT
  5
244
330
237
100
AcDbEntity
  8
Defpoints
100
AcDbPoint
 10
396.0
 20
74.4
 30
0.0
  0
POINT
  5
245
330
237
100
AcDbEntity
  8
Defpoints
100
AcDbPoint
 10
396.0
 20
164.4
 30
0.0
  0
ENDBLK
  5
239
330
237
100
AcDbEntity
  8
0
100
AcDbBlockEnd
  0
ENDSEC
  0
SECTION
  2
ENTITIES
  0
LWPOLYLINE
  5
92
330
17
100
AcDbEntity
  8
A-TTLB-THIN
100
AcDbPolyline
 90
4
 70
1
 10
0.0
 20
0.0
 10
576.0
 20
0.0
 10
576.0
 20
432.0
 10
0.0
 20
432.0
  0
LWPOLYLINE
  5
93
330
17
100
AcDbEntity
  8
A-TTLB
100
AcDbPolyline
 90
4
 70
1
 43
0.96
 10
12.0
 20
12.0
 10
564.0
 20
12.0
 10
564.0
 20
420.0
 10
12.0
 20
420.0
  0
LINE
  5
94
330
17
100
AcDbEntity
  8
A-TTLB
100
AcDbLine
 10
462.0
 20
12.0
 30
0.0
 11
462.0
 21
420.0
 31
0.0
  0
LINE
  5
95
330
17
100
AcDbEntity
  8
A-FLOR
100
AcDbLine
 10
73.5
 20
254.16
 30
0.0
 11
193.5
 21
254.16
 31
0.0
  0
LINE
  5
96
330
17
100
AcDbEntity
  8
A-FLOR
100
AcDbLine
 10
193.5
 20
254.16
 30
0.0
 11
193.5
 21
374.15999999999997
 31
0.0
  0
LINE
  5
97
330
17
100
AcDbEntity
  8
A-FLOR
100
AcDbLine
 10
73.5
 20
374.15999999999997
 30
0.0
 11
193.5
 21
374.15999999999997
 31
0.0
  0
LINE
  5
98
330
17
100
AcDbEntity
  8
A-FLOR
100
AcDbLine
 10
73.5
 20
254.16
 30
0.0
 11
73.5
 21
374.15999999999997
 31
0.0
  0
LINE
  5
99
330
17
100
AcDbEntity
  8
A-STRC
100
AcDbLine
 10
73.5
 20
368.15999999999997
 30
0.0
 11
79.5
 21
368.15999999999997
 31
0.0
  0
LINE
  5
9A
330
17
100
AcDbEntity
  8
A-STRC
100
AcDbLine
 10
79.5
 20
368.15999999999997
 30
0.0
 11
79.5
 21
374.15999999999997
 31
0.0
  0
LINE
  5
9B
330
17
100
AcDbEntity
  8
A-STRC
100
AcDbLine
 10
73.5
 20
374.15999999999997
 30
0.0
 11
79.5
 21
374.15999999999997
 31
0.0
  0
LINE
  5
9C
330
17
100
AcDbEntity
  8
A-STRC
100
AcDbLine
 10
73.5
 20
368.15999999999997
 30
0.0
 11
73.5
 21
374.15999999999997
 31
0.0
  0
LINE
  5
9D
330
17
100
AcDbEntity
  8
A-STRC
100
AcDbLine
 10
73.5
 20
311.15999999999997
 30
0.0
 11
79.5
 21
311.15999999999997
 31
0.0
  0
LINE
  5
9E
330
17
100
AcDbEntity
  8
A-STRC
100
AcDbLine
 10
79.5
 20
311.15999999999997
 30
0.0
 11
79.5
 21
317.15999999999997
 31
0.0
  0
LINE
  5
9F
330
17
100
AcDbEntity
  8
A-STRC
100
AcDbLine
 10
73.5
 20
317.15999999999997
 30
0.0
 11
79.5
 21
317.15999999999997
 31
0.0
  0
LINE
  5
A0
330
17
100
AcDbEntity
  8
A-STRC
100
AcDbLine
 10
73.5
 20
311.15999999999997
 30
0.0
 11
73.5
 21
317.15999999999997
 31
0.0
  0
LINE
  5
A1
330
17
100
AcDbEntity
  8
A-STRC
100
AcDbLine
 10
79.5
 20
317.15999999999997
 30
0.0
 11
79.5
 21
368.15999999999997
 31
0.0
  0
LINE
  5
A2
330
17
100
AcDbEntity
  8
A-STRC
100
AcDbLine
 10
73.5
 20
317.15999999999997
 30
0.0
 11
73.5
 21
368.15999999999997
 31
0.0
  0
LINE
  5
A3
330
17
100
AcDbEntity
  8
A-STRC
100
AcDbLine
 10
187.5
 20
368.15999999999997
 30
0.0
 11
193.5
 21
368.15999999999997
 31
0.0
  0
LINE
  5
A4
330
17
100
AcDbEntity
  8
A-STRC
100
AcDbLine
 10
193.5
 20
368.15999999999997
 30
0.0
 11
193.5
 21
374.15999999999997
 31
0.0
  0
LINE
  5
A5
330
17
100
AcDbEntity
  8
A-STRC
100
AcDbLine
 10
187.5
 20
374.15999999999997
 30
0.0
 11
193.5
 21
374.15999999999997
 31
0.0
  0
LINE
  5
A6
330
17
100
AcDbEntity
  8
A-STRC
100
AcDbLine
 10
187.5
 20
368.15999999999997
 30
0.0
 11
187.5
 21
374.15999999999997
 31
0.0
  0
LINE
  5
A7
330
17
100
AcDbEntity
  8
A-STRC
100
AcDbLine
 10
187.5
 20
311.15999999999997
 30
0.0
 11
193.5
 21
311.15999999999997
 31
0.0
  0
LINE
  5
A8
330
17
100
AcDbEntity
  8
A-STRC
100
AcDbLine
 10
193.5
 20
311.15999999999997
 30
0.0
 11
193.5
 21
317.15999999999997
 31
0.0
  0
LINE
  5
A9
330
17
100
AcDbEntity
  8
A-STRC
100
AcDbLine
 10
187.5
 20
317.15999999999997
 30
0.0
 11
193.5
 21
317.15999999999997
 31
0.0
  0
LINE
  5
AA
330
17
100
AcDbEntity
  8
A-STRC
100
AcDbLine
 10
187.5
 20
311.15999999999997
 30
0.0
 11
187.5
 21
317.15999999999997
 31
0.0
  0
LINE
  5
AB
330
17
100
AcDbEntity
  8
A-STRC
100
AcDbLine
 10
193.5
 20
317.15999999999997
 30
0.0
 11
193.5
 21
368.15999999999997
 31
0.0
  0
LINE
  5
AC
330
17
100
AcDbEntity
  8
A-STRC
100
AcDbLine
 10
187.5
 20
317.15999999999997
 30
0.0
 11
187.5
 21
368.15999999999997
 31
0.0
  0
LINE
  5
AD
330
17
100
AcDbEntity
  8
A-STRC
100
AcDbLine
 10
79.5
 20
356.15999999999997
 30
0.0
 11
187.5
 21
356.15999999999997
 31
0.0
  0
LINE
  5
AE
330
17
100
AcDbEntity
  8
A-STRC
100
AcDbLine
 10
187.5
 20
356.15999999999997
 30
0.0
 11
187.5
 21
362.15999999999997
 31
0.0
  0
LINE
  5
AF
330
17
100
AcDbEntity
  8
A-STRC
100
AcDbLine
 10
79.5
 20
362.15999999999997
 30
0.0
 11
187.5
 21
362.15999999999997
 31
0.0
  0
LINE
  5
B0
330
17
100
AcDbEntity
  8
A-STRC
100
AcDbLine
 10
79.5
 20
356.15999999999997
 30
0.0
 11
79.5
 21
362.15999999999997
 31
0.0
  0
LINE
  5
B1
330
17
100
AcDbEntity
  8
A-STRC
100
AcDbLine
 10
93.0
 20
326.15999999999997
 30
0.0
 11
174.0
 21
326.15999999999997
 31
0.0
  0
LINE
  5
B2
330
17
100
AcDbEntity
  8
A-STRC
100
AcDbLine
 10
106.85640000000001
 20
318.15999999999997
 30
0.0
 11
160.1436
 21
318.15999999999997
 31
0.0
  0
LINE
  5
B3
330
17
100
AcDbEntity
  8
A-STRC
100
AcDbLine
 10
170.5359
 20
324.15999999999997
 30
0.0
 11
174.0
 21
326.15999999999997
 31
0.0
  0
LINE
  5
B4
330
17
100
AcDbEntity
  8
A-STRC
100
AcDbLine
 10
93.0
 20
326.15999999999997
 30
0.0
 11
96.4641
 21
324.15999999999997
 31
0.0
  0
LINE
  5
B5
330
17
100
AcDbEntity
  8
A-STRC
100
AcDbLine
 10
133.5
 20
256.01189999999997
 30
0.0
 11
174.0
 21
326.15999999999997
 31
0.0
  0
LINE
  5
B6
330
17
100
AcDbEntity
  8
A-STRC
100
AcDbLine
 10
133.5
 20
272.01189999999997
 30
0.0
 11
160.1436
 21
318.15999999999997
 31
0.0
  0
LINE
  5
B7
330
17
100
AcDbEntity
  8
A-STRC
100
AcDbLine
 10
133.5
 20
256.01189999999997
 30
0.0
 11
133.5
 21
260.01189999999997
 31
0.0
  0
LINE
  5
B8
330
17
100
AcDbEntity
  8
A-STRC
100
AcDbLine
 10
93.0
 20
326.15999999999997
 30
0.0
 11
133.5
 21
256.01189999999997
 31
0.0
  0
LINE
  5
B9
330
17
100
AcDbEntity
  8
A-STRC
100
AcDbLine
 10
106.85640000000001
 20
318.15999999999997
 30
0.0
 11
133.5
 21
272.01189999999997
 31
0.0
  0
DIMENSION
  5
BA
330
17
100
AcDbEntity
  8
A-DIMS
100
AcDbDimension
280
0
  2
*D1
  3
ARCH
 10
73.5
 20
236.16
 30
0.0
 11
133.5
 21
236.16
 31
0.0
 70
32
 71
5
  1
10'-0"
100
AcDbAlignedDimension
 13
73.5
 23
254.16
 33
0.0
 14
193.5
 24
254.16
 34
0.0
 50
0.0
100
AcDbRotatedDimension
  0
DIMENSION
  5
CA
330
17
100
AcDbEntity
  8
A-DIMS
100
AcDbDimension
280
0
  2
*D2
  3
ARCH
 10
55.5
 20
254.16
 30
0.0
 11
55.5
 21
314.15999999999997
 31
0.0
 70
32
 71
5
  1
10'-0"
100
AcDbAlignedDimension
 13
73.5
 23
254.16
 33
0.0
 14
73.5
 24
374.15999999999997
 34
0.0
 50
90.0
100
AcDbRotatedDimension
  0
DIMENSION
  5
DA
330
17
100
AcDbEntity
  8
A-DIMS
100
AcDbDimension
280
0
  2
*D3
  3
ARCH
 10
93.0
 20
390.15999999999997
 30
0.0
 11
133.5
 21
390.15999999999997
 31
0.0
 70
32
 71
5
  1
6'-9"
100
AcDbAlignedDimension
 13
93.0
 23
326.15999999999997
 33
0.0
 14
174.0
 24
326.15999999999997
 34
0.0
 50
0.0
100
AcDbRotatedDimension
  0
DIMENSION
  5
EA
330
17
100
AcDbEntity
  8
A-DIMS
100
AcDbDimension
280
0
  2
*D4
  3
ARCH
 10
211.5
 20
311.15999999999997
 30
0.0
 11
211.5
 21
342.65999999999997
 31
0.0
 70
32
 71
5
  1
5'-3"
100
AcDbAlignedDimension
 13
193.5
 23
311.15999999999997
 33
0.0
 14
193.5
 24
374.15999999999997
 34
0.0
 50
90.0
100
AcDbRotatedDimension
  0
DIMENSION
  5
FA
330
17
100
AcDbEntity
  8
A-DIMS
100
AcDbDimension
280
0
  2
*D5
  3
ARCH
 10
86.25
 20
326.15999999999997
 30
0.0
 11
86.25
 21
350.15999999999997
 31
0.0
 70
32
 71
5
  1
4'-0"
100
AcDbAlignedDimension
 13
93.0
 23
326.15999999999997
 33
0.0
 14
93.0
 24
374.15999999999997
 34
0.0
 50
90.0
100
AcDbRotatedDimension
  0
TEXT
  5
10A
330
17
100
AcDbEntity
  8
A-ANNO
100
AcDbText
 10
133.5
 20
224.16
 30
0.0
 40
4.0
  1
AISLE
  7
ARCH-TXT
 72
1
 11
133.5
 21
224.16
 31
0.0
100
AcDbText
 73
2
  0
TEXT
  5
10B
330
17
100
AcDbEntity
  8
A-ANNO
100
AcDbText
 10
133.5
 20
212.16
 30
0.0
 40
6.0
  1
PLAN VIEW
  7
ARCH-TXT
 72
1
 11
133.5
 21
212.16
 31
0.0
100
AcDbText
 73
2
  0
LINE
  5
10C
330
17
100
AcDbEntity
  8
A-ANNO
100
AcDbLine
 10
116.76
 20
207.16
 30
0.0
 11
150.24
 21
207.16
 31
0.0
  0
TEXT
  5
10D
330
17
100
AcDbEntity
  8
A-ANNO
100
AcDbText
 10
133.5
 20
201.16
 30
0.0
 40
3.5
  1
SCALE: 1/2" = 1'-0"
  7
ARCH-TXT
 72
1
 11
133.5
 21
201.16
 31
0.0
100
AcDbText
 73
2
  0
LINE
  5
10E
330
17
100
AcDbEntity
  8
A-FLOR
100
AcDbLine
 10
251.1471862576143
 20
283.1255128608411
 30
0.0
 11
336.0
 21
234.13571800517755
 31
0.0
  0
LINE
  5
10F
330
17
100
AcDbEntity
  8
A-FLOR
100
AcDbLine
 10
336.0
 20
234.13571800517755
 30
0.0
 11
420.85281374238565
 21
283.1255128608411
 31
0.0
  0
LINE
  5
110
330
17
100
AcDbEntity
  8
A-FLOR
100
AcDbLine
 10
340.24264068711926
 20
329.6658179737215
 30
0.0
 11
358.9809703885628
 21
318.84723827642915
 31
0.0
  0
LINE
  5
111
330
17
100
AcDbEntity
  8
A-FLOR
100
AcDbLine
 10
366.0520382004282
 20
314.7647553717905
 30
0.0
 11
372.06244584051393
 21
311.29464490284766
 31
0.0
  0
LINE
  5
112
330
17
100
AcDbEntity
  8
A-FLOR
100
AcDbLine
 10
380.5477272147525
 20
306.3956654172813
 30
0.0
 11
412.3675323681471
 21
288.02449234640744
 31
0.0
  0
LINE
  5
113
330
17
100
AcDbEntity
  8
A-FLOR
100
AcDbLine
 10
251.1471862576143
 20
283.1255128608411
 30
0.0
 11
291.4522727852475
 21
306.3956654172813
 31
0.0
  0
LINE
  5
114
330
17
100
AcDbEntity
  8
A-FLOR
100
AcDbLine
 10
306.301515190165
 20
314.96887951702246
 30
0.0
 11
315.14034995499685
 21
320.07198314782073
 31
0.0
  0
LINE
  5
115
330
17
100
AcDbEntity
  8
A-FLOR
100
AcDbLine
 10
322.2114177668623
 20
324.1544660524594
 30
0.0
 11
331.7573593128807
 21
329.6658179737215
 31
0.0
  0
LINE
  5
116
330
17
100
AcDbEntity
  8
A-STRC
100
AcDbLine
 10
331.7573593128807
 20
329.6658179737215
 30
0.0
 11
336.0
 21
327.21632823093836
 31
0.0
  0
LINE
  5
117
330
17
100
AcDbEntity
  8
A-STRC
100
AcDbLine
 10
336.0
 20
327.21632823093836
 30
0.0
 11
340.24264068711926
 21
329.6658179737215
 31
0.0
  0
LINE
  5
118
330
17
100
AcDbEntity
  8
A-STRC
100
AcDbLine
 10
331.7573593128807
 20
403.15051025721687
 30
0.0
 11
336.0
 21
400.7010205144337
 31
0.0
  0
LINE
  5
119
330
17
100
AcDbEntity
  8
A-STRC
100
AcDbLine
 10
336.0
 20
400.7010205144337
 30
0.0
 11
340.24264068711926
 21
403.15051025721687
 31
0.0
  0
LINE
  5
11A
330
17
100
AcDbEntity
  8
A-STRC
100
AcDbLine
 10
336.0
 20
405.6
 30
0.0
 11
340.24264068711926
 21
403.15051025721687
 31
0.0
  0
LINE
  5
11B
330
17
100
AcDbEntity
  8
A-STRC
100
AcDbLine
 10
331.7573593128807
 20
403.15051025721687
 30
0.0
 11
336.0
 21
405.6
 31
0.0
  0
LINE
  5
11C
330
17
100
AcDbEntity
  8
A-STRC
100
AcDbLine
 10
336.0
 20
327.21632823093836
 30
0.0
 11
336.0
 21
341.244094923523
 31
0.0
  0
LINE
  5
11D
330
17
100
AcDbEntity
  8
A-STRC
100
AcDbLine
 10
336.0
 20
348.9128797168338
 30
0.0
 11
336.0
 21
360.6926880489751
 31
0.0
  0
LINE
  5
11E
330
17
100
AcDbEntity
  8
A-STRC
100
AcDbLine
 10
336.0
 20
371.3071436010356
 30
0.0
 11
336.0
 21
386.00408205773465
 31
0.0
  0
LINE
  5
11F
330
17
100
AcDbEntity
  8
A-STRC
100
AcDbLine
 10
336.0
 20
395.80204102886734
 30
0.0
 11
336.0
 21
400.7010205144337
 31
0.0
  0
LINE
  5
120
330
17
100
AcDbEntity
  8
A-STRC
100
AcDbLine
 10
331.7573593128807
 20
329.6658179737215
 30
0.0
 11
331.7573593128807
 21
340.5877561250759
 31
0.0
  0
LINE
  5
121
330
17
100
AcDbEntity
  8
A-STRC
100
AcDbLine
 10
331.7573593128807
 20
348.25654091838675
 30
0.0
 11
331.7573593128807
 21
363.1421777917583
 31
0.0
  0
LINE
  5
122
330
17
100
AcDbEntity
  8
A-STRC
100
AcDbLine
 10
331.7573593128807
 20
373.75663334381875
 30
0.0
 11
331.7573593128807
 21
388.4535718005178
 31
0.0
  0
LINE
  5
123
330
17
100
AcDbEntity
  8
A-STRC
100
AcDbLine
 10
340.24264068711926
 20
329.6658179737215
 30
0.0
 11
340.24264068711926
 21
341.90043372197005
 31
0.0
  0
LINE
  5
124
330
17
100
AcDbEntity
  8
A-STRC
100
AcDbLine
 10
340.24264068711926
 20
349.5692185152809
 30
0.0
 11
340.24264068711926
 21
358.2431983061919
 31
0.0
  0
LINE
  5
125
330
17
100
AcDbEntity
  8
A-STRC
100
AcDbLine
 10
340.24264068711926
 20
368.8576538582524
 30
0.0
 11
340.24264068711926
 21
383.55459231495144
 31
0.0
  0
LINE
  5
126
330
17
100
AcDbEntity
  8
A-STRC
100
AcDbLine
 10
340.24264068711926
 20
393.3525512860841
 30
0.0
 11
340.24264068711926
 21
403.15051025721687
 31
0.0
  0
LINE
  5
127
330
17
100
AcDbEntity
  8
A-STRC
100
AcDbLine
 10
336.0
 20
332.1153077165047
 30
0.0
 11
336.0
 21
341.244094923523
 31
0.0
  0
LINE
  5
128
330
17
100
AcDbEntity
  8
A-STRC
100
AcDbLine
 10
291.4522727852475
 20
306.3956654172813
 30
0.0
 11
295.6949134723668
 21
303.94617567449814
 31
0.0
  0
LINE
  5
129
330
17
100
AcDbEntity
  8
A-STRC
100
AcDbLine
 10
295.6949134723668
 20
303.94617567449814
 30
0.0
 11
299.2304473782995
 21
305.98741712681743
 31
0.0
  0
LINE
  5
12A
330
17
100
AcDbEntity
  8
A-STRC
100
AcDbLine
 10
291.4522727852475
 20
379.8803577007767
 30
0.0
 11
295.6949134723668
 21
377.4308679579935
 31
0.0
  0
LINE
  5
12B
330
17
100
AcDbEntity
  8
A-STRC
100
AcDbLine
 10
295.6949134723668
 20
377.4308679579935
 30
0.0
 11
299.93755415948607
 21
379.8803577007767
 31
0.0
  0
LINE
  5
12C
330
17
100
AcDbEntity
  8
A-STRC
100
AcDbLine
 10
295.6949134723668
 20
382.32984744355986
 30
0.0
 11
299.93755415948607
 21
379.8803577007767
 31
0.0
  0
LINE
  5
12D
330
17
100
AcDbEntity
  8
A-STRC
100
AcDbLine
 10
291.4522727852475
 20
379.8803577007767
 30
0.0
 11
295.6949134723668
 21
382.32984744355986
 31
0.0
  0
LINE
  5
12E
330
17
100
AcDbEntity
  8
A-STRC
100
AcDbLine
 10
295.6949134723668
 20
303.94617567449814
 30
0.0
 11
295.6949134723668
 21
337.0673005833411
 31
0.0
  0
LINE
  5
12F
330
17
100
AcDbEntity
  8
A-STRC
100
AcDbLine
 10
295.6949134723668
 20
339.51952405899885
 30
0.0
 11
295.6949134723668
 21
377.4308679579935
 31
0.0
  0
LINE
  5
130
330
17
100
AcDbEntity
  8
A-STRC
100
AcDbLine
 10
291.4522727852475
 20
306.39566541728135
 30
0.0
 11
291.4522727852475
 21
379.88035770077664
 31
0.0
  0
LINE
  5
131
330
17
100
AcDbEntity
  8
A-STRC
100
AcDbLine
 10
299.93755415948607
 20
348.6611442316845
 30
0.0
 11
299.93755415948607
 21
379.88035770077664
 31
0.0
  0
LINE
  5
132
330
17
100
AcDbEntity
  8
A-STRC
100
AcDbLine
 10
295.6949134723668
 20
308.8451551600645
 30
0.0
 11
295.6949134723668
 21
337.0673005833411
 31
0.0
  0
LINE
  5
133
330
17
100
AcDbEntity
  8
A-STRC
100
AcDbLine
 10
299.93755415948607
 20
374.9813782152103
 30
0.0
 11
327.5147186257614
 21
390.90306154330096
 31
0.0
  0
LINE
  5
134
330
17
100
AcDbEntity
  8
A-STRC
100
AcDbLine
 10
299.93755415948607
 20
379.8803577007767
 30
0.0
 11
331.7573593128807
 21
398.2515307716505
 31
0.0
  0
LINE
  5
135
330
17
100
AcDbEntity
  8
A-STRC
100
AcDbLine
 10
299.93755415948607
 20
379.8803577007767
 30
0.0
 11
336.0
 21
400.7010205144337
 31
0.0
  0
LINE
  5
136
330
17
100
AcDbEntity
  8
A-STRC
100
AcDbLine
 10
295.6949134723668
 20
382.32984744355986
 30
0.0
 11
331.7573593128807
 21
403.15051025721687
 31
0.0
  0
LINE
  5
137
330
17
100
AcDbEntity
  8
A-STRC
100
AcDbLine
 10
299.93755415948607
 20
374.9813782152103
 30
0.0
 11
299.93755415948607
 21
379.8803577007767
 31
0.0
  0
LINE
  5
138
330
17
100
AcDbEntity
  8
A-STRC
100
AcDbLine
 10
412.3675323681471
 20
283.1255128608411
 30
0.0
 11
416.6101730552664
 21
280.67602311805797
 31
0.0
  0
LINE
  5
139
330
17
100
AcDbEntity
  8
A-STRC
100
AcDbLine
 10
416.6101730552664
 20
280.67602311805797
 30
0.0
 11
420.8528137423857
 21
283.1255128608411
 31
0.0
  0
LINE
  5
13A
330
17
100
AcDbEntity
  8
A-STRC
100
AcDbLine
 10
412.3675323681471
 20
356.6102051443365
 30
0.0
 11
416.6101730552664
 21
354.1607154015533
 31
0.0
  0
LINE
  5
13B
330
17
100
AcDbEntity
  8
A-STRC
100
AcDbLine
 10
416.6101730552664
 20
354.1607154015533
 30
0.0
 11
420.8528137423857
 21
356.6102051443365
 31
0.0
  0
LINE
  5
13C
330
17
100
AcDbEntity
  8
A-STRC
100
AcDbLine
 10
416.6101730552664
 20
359.0596948871197
 30
0.0
 11
420.8528137423857
 21
356.6102051443365
 31
0.0
  0
LINE
  5
13D
330
17
100
AcDbEntity
  8
A-STRC
100
AcDbLine
 10
412.3675323681471
 20
356.6102051443365
 30
0.0
 11
416.6101730552664
 21
359.0596948871197
 31
0.0
  0
LINE
  5
13E
330
17
100
AcDbEntity
  8
A-STRC
100
AcDbLine
 10
416.6101730552664
 20
280.67602311805797
 30
0.0
 11
416.6101730552664
 21
354.1607154015533
 31
0.0
  0
LINE
  5
13F
330
17
100
AcDbEntity
  8
A-STRC
100
AcDbLine
 10
412.3675323681471
 20
283.1255128608411
 30
0.0
 11
412.3675323681471
 21
346.8122461732038
 31
0.0
  0
LINE
  5
140
330
17
100
AcDbEntity
  8
A-STRC
100
AcDbLine
 10
420.8528137423857
 20
283.1255128608411
 30
0.0
 11
420.8528137423857
 21
356.6102051443365
 31
0.0
  0
LINE
  5
141
330
17
100
AcDbEntity
  8
A-STRC
100
AcDbLine
 10
416.6101730552664
 20
285.5750026036243
 30
0.0
 11
416.6101730552664
 21
354.1607154015533
 31
0.0
  0
LINE
  5
142
330
17
100
AcDbEntity
  8
A-STRC
100
AcDbLine
 10
372.06244584051393
 20
259.85536030440096
 30
0.0
 11
376.3050865276332
 21
257.40587056161775
 31
0.0
  0
LINE
  5
143
330
17
100
AcDbEntity
  8
A-STRC
100
AcDbLine
 10
376.3050865276332
 20
257.40587056161775
 30
0.0
 11
380.5477272147525
 21
259.85536030440096
 31
0.0
  0
LINE
  5
144
330
17
100
AcDbEntity
  8
A-STRC
100
AcDbLine
 10
372.06244584051393
 20
333.34005258789625
 30
0.0
 11
376.3050865276332
 21
330.8905628451131
 31
0.0
  0
LINE
  5
145
330
17
100
AcDbEntity
  8
A-STRC
100
AcDbLine
 10
376.3050865276332
 20
330.8905628451131
 30
0.0
 11
380.5477272147525
 21
333.34005258789625
 31
0.0
  0
LINE
  5
146
330
17
100
AcDbEntity
  8
A-STRC
100
AcDbLine
 10
376.3050865276332
 20
335.78954233067947
 30
0.0
 11
380.5477272147525
 21
333.34005258789625
 31
0.0
  0
LINE
  5
147
330
17
100
AcDbEntity
  8
A-STRC
100
AcDbLine
 10
372.06244584051393
 20
333.34005258789625
 30
0.0
 11
376.3050865276332
 21
335.78954233067947
 31
0.0
  0
LINE
  5
148
330
17
100
AcDbEntity
  8
A-STRC
100
AcDbLine
 10
376.3050865276332
 20
257.40587056161775
 30
0.0
 11
376.3050865276332
 21
330.8905628451131
 31
0.0
  0
LINE
  5
149
330
17
100
AcDbEntity
  8
A-STRC
100
AcDbLine
 10
372.06244584051393
 20
259.85536030440096
 30
0.0
 11
372.06244584051393
 21
333.34005258789625
 31
0.0
  0
LINE
  5
14A
330
17
100
AcDbEntity
  8
A-STRC
100
AcDbLine
 10
380.5477272147525
 20
259.85536030440096
 30
0.0
 11
380.5477272147525
 21
333.34005258789625
 31
0.0
  0
LINE
  5
14B
330
17
100
AcDbEntity
  8
A-STRC
100
AcDbLine
 10
376.3050865276332
 20
262.3048500471841
 30
0.0
 11
376.3050865276332
 21
330.8905628451131
 31
0.0
  0
LINE
  5
14C
330
17
100
AcDbEntity
  8
A-STRC
100
AcDbLine
 10
380.5477272147525
 20
328.44107310232994
 30
0.0
 11
416.6101730552664
 21
349.26173591598695
 31
0.0
  0
LINE
  5
14D
330
17
100
AcDbEntity
  8
A-STRC
100
AcDbLine
 10
380.5477272147525
 20
333.34005258789625
 30
0.0
 11
412.3675323681471
 21
351.7112256587701
 31
0.0
  0
LINE
  5
14E
330
17
100
AcDbEntity
  8
A-STRC
100
AcDbLine
 10
380.5477272147525
 20
333.34005258789625
 30
0.0
 11
416.6101730552664
 21
354.1607154015533
 31
0.0
  0
LINE
  5
14F
330
17
100
AcDbEntity
  8
A-STRC
100
AcDbLine
 10
376.3050865276332
 20
335.78954233067947
 30
0.0
 11
412.3675323681471
 21
356.6102051443365
 31
0.0
  0
LINE
  5
150
330
17
100
AcDbEntity
  8
A-STRC
100
AcDbLine
 10
380.5477272147525
 20
328.44107310232994
 30
0.0
 11
380.5477272147525
 21
333.34005258789625
 31
0.0
  0
LINE
  5
151
330
17
100
AcDbEntity
  8
A-STRC
100
AcDbLine
 10
416.6101730552664
 20
349.26173591598695
 30
0.0
 11
416.6101730552664
 21
354.1607154015533
 31
0.0
  0
LINE
  5
152
330
17
100
AcDbEntity
  8
A-STRC
100
AcDbLine
 10
327.5147186257614
 20
390.90306154330096
 30
0.0
 11
399.6396103067893
 21
349.26173591598695
 31
0.0
  0
LINE
  5
153
330
17
100
AcDbEntity
  8
A-STRC
100
AcDbLine
 10
403.88225099390854
 20
346.8122461732038
 30
0.0
 11
408.12489168102786
 21
349.26173591598695
 31
0.0
  0
LINE
  5
154
330
17
100
AcDbEntity
  8
A-STRC
100
AcDbLine
 10
331.7573593128807
 20
393.3525512860841
 30
0.0
 11
403.88225099390854
 21
351.7112256587701
 31
0.0
  0
LINE
  5
155
330
17
100
AcDbEntity
  8
A-STRC
100
AcDbLine
 10
327.5147186257614
 20
395.80204102886734
 30
0.0
 11
403.88225099390854
 21
351.7112256587701
 31
0.0
  0
LINE
  5
156
330
17
100
AcDbEntity
  8
A-STRC
100
AcDbLine
 10
403.88225099390854
 20
351.7112256587701
 30
0.0
 11
408.12489168102786
 21
354.1607154015533
 31
0.0
  0
LINE
  5
157
330
17
100
AcDbEntity
  8
A-STRC
100
AcDbLine
 10
331.7573593128807
 20
398.2515307716505
 30
0.0
 11
408.12489168102786
 21
354.1607154015533
 31
0.0
  0
LINE
  5
158
330
17
100
AcDbEntity
  8
A-STRC
100
AcDbLine
 10
327.5147186257614
 20
395.80204102886734
 30
0.0
 11
331.7573593128807
 21
398.2515307716505
 31
0.0
  0
LINE
  5
159
330
17
100
AcDbEntity
  8
A-STRC
100
AcDbLine
 10
327.5147186257614
 20
390.90306154330096
 30
0.0
 11
327.5147186257614
 21
395.80204102886734
 31
0.0
  0
LINE
  5
15A
330
17
100
AcDbEntity
  8
A-STRC
100
AcDbLine
 10
315.8474567361834
 20
382.9422198792556
 30
0.0
 11
373.12310601229376
 21
349.8741083516827
 31
0.0
  0
LINE
  5
15B
330
17
100
AcDbEntity
  8
A-STRC
100
AcDbLine
 10
319.98855688952426
 20
374.01938194356126
 30
0.0
 11
357.66829735996805
 21
352.2649736399553
 31
0.0
  0
LINE
  5
15C
330
17
100
AcDbEntity
  8
A-STRC
100
AcDbLine
 10
319.98855688952426
 20
369.93689903892266
 30
0.0
 11
352.0915174334166
 21
351.40224612712245
 31
0.0
  0
LINE
  5
15D
330
17
100
AcDbEntity
  8
A-STRC
100
AcDbLine
 10
369.25940384921233
 20
346.38934176911226
 30
0.0
 11
373.12310601229376
 21
349.8741083516827
 31
0.0
  0
LINE
  5
15E
330
17
100
AcDbEntity
  8
A-STRC
100
AcDbLine
 10
319.98855688952426
 20
369.93689903892266
 30
0.0
 11
319.98855688952426
 21
374.01938194356126
 31
0.0
  0
LINE
  5
15F
330
17
100
AcDbEntity
  8
A-STRC
100
AcDbLine
 10
294.88308417688654
 20
337.77032221118105
 30
0.0
 11
373.12310601229376
 21
349.8741083516827
 31
0.0
  0
LINE
  5
160
330
17
100
AcDbEntity
  8
A-STRC
100
AcDbLine
 10
306.1967926758713
 20
344.30229485860286
 30
0.0
 11
357.66829279166865
 21
352.2649729332361
 31
0.0
  0
LINE
  5
161
330
17
100
AcDbEntity
  8
A-STRC
100
AcDbLine
 10
297.7115113016327
 20
335.3208324683979
 30
0.0
 11
369.25940384921233
 21
346.38934176911226
 31
0.0
  0
LINE
  5
162
330
17
100
AcDbEntity
  8
A-STRC
100
AcDbLine
 10
294.88308417688654
 20
337.77032221118105
 30
0.0
 11
297.7115113016327
 21
335.3208324683979
 31
0.0
  0
LINE
  5
163
330
17
100
AcDbEntity
  8
A-STRC
100
AcDbLine
 10
315.8474567361834
 20
382.9422198792556
 30
0.0
 11
294.88308417688654
 21
337.77032221118105
 31
0.0
  0
LINE
  5
164
330
17
100
AcDbEntity
  8
A-STRC
100
AcDbLine
 10
319.98855688952426
 20
374.01938194356126
 30
0.0
 11
306.1967926758713
 21
344.30229485860286
 31
0.0
  0
LINE
  5
165
330
17
100
AcDbEntity
  8
A-STRC
100
AcDbLine
 10
297.7115255914478
 20
335.32086325863736
 30
0.0
 11
297.7115113016327
 21
335.3208324683979
 31
0.0
  0
LINE
  5
166
330
17
100
AcDbEntity
  8
A-STRC
100
AcDbLine
 10
319.98855688952426
 20
369.93689903892266
 30
0.0
 11
308.2380430153211
 21
344.6180900248424
 31
0.0
  0
LINE
  5
167
330
17
100
AcDbEntity
  8
A-STRC
100
AcDbLine
 10
315.14034995499685
 20
298.434823753236
 30
0.0
 11
318.67588386092956
 21
296.3935823009167
 31
0.0
  0
LINE
  5
168
330
17
100
AcDbEntity
  8
A-STRC
100
AcDbLine
 10
318.67588386092956
 20
296.3935823009167
 30
0.0
 11
322.2114177668623
 21
298.434823753236
 31
0.0
  0
LINE
  5
169
330
17
100
AcDbEntity
  8
A-STRC
100
AcDbLine
 10
319.9885614578237
 20
374.0193793060524
 30
0.0
 11
322.2114177668623
 21
372.73601261765907
 31
0.0
  0
LINE
  5
16A
330
17
100
AcDbEntity
  8
A-STRC
100
AcDbLine
 10
318.67588386092956
 20
296.3935823009167
 30
0.0
 11
318.67588386092956
 21
338.5640448298641
 31
0.0
  0
LINE
  5
16B
330
17
100
AcDbEntity
  8
A-STRC
100
AcDbLine
 10
318.67588386092956
 20
346.23282962317495
 30
0.0
 11
318.67588386092956
 21
367.1084692766675
 31
0.0
  0
LINE
  5
16C
330
17
100
AcDbEntity
  8
A-STRC
100
AcDbLine
 10
315.14034995499685
 20
298.434823753236
 30
0.0
 11
315.14034995499685
 21
338.0170958311582
 31
0.0
  0
LINE
  5
16D
330
17
100
AcDbEntity
  8
A-STRC
100
AcDbLine
 10
315.14034995499685
 20
345.68588062446906
 30
0.0
 11
315.14034995499685
 21
359.4904524660962
 31
0.0
  0
LINE
  5
16E
330
17
100
AcDbEntity
  8
A-STRC
100
AcDbLine
 10
322.2114177668623
 20
298.434823753236
 30
0.0
 11
322.2114177668623
 21
339.11099382857
 31
0.0
  0
LINE
  5
16F
330
17
100
AcDbEntity
  8
A-STRC
100
AcDbLine
 10
322.2114177668623
 20
346.77977862188084
 30
0.0
 11
322.2114177668623
 21
368.6535297130205
 31
0.0
  0
LINE
  5
170
330
17
100
AcDbEntity
  8
A-STRC
100
AcDbLine
 10
318.67588386092956
 20
300.4760652055553
 30
0.0
 11
318.67588386092956
 21
338.5640448298641
 31
0.0
  0
LINE
  5
171
330
17
100
AcDbEntity
  8
A-STRC
100
AcDbLine
 10
358.9809703885628
 20
273.1234297444765
 30
0.0
 11
362.5165042944955
 21
271.0821882921572
 31
0.0
  0
LINE
  5
172
330
17
100
AcDbEntity
  8
A-STRC
100
AcDbLine
 10
362.5165042944955
 20
271.0821882921572
 30
0.0
 11
366.0520382004282
 21
273.1234297444765
 31
0.0
  0
LINE
  5
173
330
17
100
AcDbEntity
  8
A-STRC
100
AcDbLine
 10
362.5165042944955
 20
271.0821882921572
 30
0.0
 11
362.5165042944955
 21
345.34621241381717
 31
0.0
  0
LINE
  5
174
330
17
100
AcDbEntity
  8
A-STRC
100
AcDbLine
 10
358.9809703885628
 20
273.1234297444765
 30
0.0
 11
358.9809703885628
 21
344.7992634151113
 31
0.0
  0
LINE
  5
175
330
17
100
AcDbEntity
  8
A-STRC
100
AcDbLine
 10
366.0520382004282
 20
273.1234297444765
 30
0.0
 11
366.0520382004282
 21
345.89316141252306
 31
0.0
  0
LINE
  5
176
330
17
100
AcDbEntity
  8
A-STRC
100
AcDbLine
 10
362.5165042944955
 20
275.1646711967958
 30
0.0
 11
362.5165042944955
 21
345.34621241381717
 31
0.0
  0
LINE
  5
177
330
17
100
AcDbEntity
  8
A-STRC
100
AcDbLine
 10
299.2304473782995
 20
263.93784320903956
 30
0.0
 11
302.7659812842323
 21
261.89660175672026
 31
0.0
  0
LINE
  5
178
330
17
100
AcDbEntity
  8
A-STRC
100
AcDbLine
 10
302.7659812842323
 20
261.89660175672026
 30
0.0
 11
306.301515190165
 21
263.93784320903956
 31
0.0
  0
LINE
  5
179
330
17
100
AcDbEntity
  8
A-STRC
100
AcDbLine
 10
302.7659812842323
 20
261.89660175672026
 30
0.0
 11
302.7659812842323
 21
336.10277433568757
 31
0.0
  0
LINE
  5
17A
330
17
100
AcDbEntity
  8
A-STRC
100
AcDbLine
 10
299.2304473782995
 20
263.93784320903956
 30
0.0
 11
299.2304473782995
 21
335.5558253369817
 31
0.0
  0
LINE
  5
17B
330
17
100
AcDbEntity
  8
A-STRC
100
AcDbLine
 10
306.301515190165
 20
263.93784320903956
 30
0.0
 11
306.301515190165
 21
336.64972333439346
 31
0.0
  0
LINE
  5
17C
330
17
100
AcDbEntity
  8
A-STRC
100
AcDbLine
 10
302.7659812842323
 20
265.97908466135885
 30
0.0
 11
302.7659812842323
 21
336.10277433568757
 31
0.0
  0
TEXT
  5
17D
330
17
100
AcDbEntity
  8
A-ANNO
100
AcDbText
 10
336.0
 20
212.16
 30
0.0
 40
6.0
  1
ISOMETRIC VIEW
  7
ARCH-TXT
 72
1
 11
336.0
 21
212.16
 31
0.0
100
AcDbText
 73
2
  0
LINE
  5
17E
330
17
100
AcDbEntity
  8
A-ANNO
100
AcDbLine
 10
309.96
 20
207.16
 30
0.0
 11
362.04
 21
207.16
 31
0.0
  0
TEXT
  5
17F
330
17
100
AcDbEntity
  8
A-ANNO
100
AcDbText
 10
336.0
 20
201.16
 30
0.0
 40
3.5
  1
NOT TO SCALE
  7
ARCH-TXT
 72
1
 11
336.0
 21
201.16
 31
0.0
100
AcDbText
 73
2
  0
LINE
  5
180
330
17
100
AcDbEntity
  8
A-FLOR
100
AcDbLine
 10
73.5
 20
74.4
 30
0.0
 11
193.5
 21
74.4
 31
0.0
  0
LINE
  5
181
330
17
100
AcDbEntity
  8
A-STRC
100
AcDbLine
 10
73.5
 20
74.4
 30
0.0
 11
79.5
 21
74.4
 31
0.0
  0
LINE
  5
182
330
17
100
AcDbEntity
  8
A-STRC
100
AcDbLine
 10
73.5
 20
164.4
 30
0.0
 11
79.5
 21
164.4
 31
0.0
  0
LINE
  5
183
330
17
100
AcDbEntity
  8
A-STRC
100
AcDbLine
 10
79.5
 20
74.4
 30
0.0
 11
79.5
 21
164.4
 31
0.0
  0
LINE
  5
184
330
17
100
AcDbEntity
  8
A-STRC
100
AcDbLine
 10
73.5
 20
74.4
 30
0.0
 11
73.5
 21
164.4
 31
0.0
  0
LINE
  5
185
330
17
100
AcDbEntity
  8
A-STRC
100
AcDbLine
 10
79.5
 20
158.4
 30
0.0
 11
79.5
 21
164.4
 31
0.0
  0
LINE
  5
186
330
17
100
AcDbEntity
  8
A-STRC
100
AcDbLine
 10
73.5
 20
158.4
 30
0.0
 11
73.5
 21
164.4
 31
0.0
  0
LINE
  5
187
330
17
100
AcDbEntity
  8
A-STRC
100
AcDbLine
 10
187.5
 20
74.4
 30
0.0
 11
193.5
 21
74.4
 31
0.0
  0
LINE
  5
188
330
17
100
AcDbEntity
  8
A-STRC
100
AcDbLine
 10
187.5
 20
164.4
 30
0.0
 11
193.5
 21
164.4
 31
0.0
  0
LINE
  5
189
330
17
100
AcDbEntity
  8
A-STRC
100
AcDbLine
 10
193.5
 20
74.4
 30
0.0
 11
193.5
 21
164.4
 31
0.0
  0
LINE
  5
18A
330
17
100
AcDbEntity
  8
A-STRC
100
AcDbLine
 10
187.5
 20
74.4
 30
0.0
 11
187.5
 21
164.4
 31
0.0
  0
LINE
  5
18B
330
17
100
AcDbEntity
  8
A-STRC
100
AcDbLine
 10
193.5
 20
158.4
 30
0.0
 11
193.5
 21
164.4
 31
0.0
  0
LINE
  5
18C
330
17
100
AcDbEntity
  8
A-STRC
100
AcDbLine
 10
187.5
 20
158.4
 30
0.0
 11
187.5
 21
164.4
 31
0.0
  0
LINE
  5
18D
330
17
100
AcDbEntity
  8
A-STRC
100
AcDbLine
 10
79.5
 20
158.4
 30
0.0
 11
100.0
 21
158.4
 31
0.0
  0
LINE
  5
18E
330
17
100
AcDbEntity
  8
A-STRC
100
AcDbLine
 10
105.0
 20
158.4
 30
0.0
 11
131.0
 21
158.4
 31
0.0
  0
LINE
  5
18F
330
17
100
AcDbEntity
  8
A-STRC
100
AcDbLine
 10
136.0
 20
158.4
 30
0.0
 11
162.0
 21
158.4
 31
0.0
  0
LINE
  5
190
330
17
100
AcDbEntity
  8
A-STRC
100
AcDbLine
 10
167.0
 20
158.4
 30
0.0
 11
187.5
 21
158.4
 31
0.0
  0
LINE
  5
191
330
17
100
AcDbEntity
  8
A-STRC
100
AcDbLine
 10
79.5
 20
164.4
 30
0.0
 11
100.0
 21
164.4
 31
0.0
  0
LINE
  5
192
330
17
100
AcDbEntity
  8
A-STRC
100
AcDbLine
 10
105.0
 20
164.4
 30
0.0
 11
131.0
 21
164.4
 31
0.0
  0
LINE
  5
193
330
17
100
AcDbEntity
  8
A-STRC
100
AcDbLine
 10
136.0
 20
164.4
 30
0.0
 11
162.0
 21
164.4
 31
0.0
  0
LINE
  5
194
330
17
100
AcDbEntity
  8
A-STRC
100
AcDbLine
 10
167.0
 20
164.4
 30
0.0
 11
187.5
 21
164.4
 31
0.0
  0
LINE
  5
195
330
17
100
AcDbEntity
  8
A-STRC
100
AcDbLine
 10
93.0
 20
170.4
 30
0.0
 11
174.0
 21
170.4
 31
0.0
  0
LINE
  5
196
330
17
100
AcDbEntity
  8
A-STRC
100
AcDbLine
 10
106.85640000000001
 20
170.4
 30
0.0
 11
160.1436
 21
170.4
 31
0.0
  0
LINE
  5
197
330
17
100
AcDbEntity
  8
A-STRC
100
AcDbLine
 10
96.46410161513775
 20
165.4
 30
0.0
 11
170.53589838486226
 21
165.4
 31
0.0
  0
LINE
  5
198
330
17
100
AcDbEntity
  8
A-STRC
100
AcDbLine
 10
106.85640000000001
 20
165.4
 30
0.0
 11
160.1436
 21
165.4
 31
0.0
  0
LINE
  5
199
330
17
100
AcDbEntity
  8
A-STRC
100
AcDbLine
 10
170.5359
 20
165.4
 30
0.0
 11
174.0
 21
170.4
 31
0.0
  0
LINE
  5
19A
330
17
100
AcDbEntity
  8
A-STRC
100
AcDbLine
 10
93.0
 20
170.4
 30
0.0
 11
96.4641
 21
165.4
 31
0.0
  0
LINE
  5
19B
330
17
100
AcDbEntity
  8
A-STRC
100
AcDbLine
 10
133.5
 20
170.4
 30
0.0
 11
174.0
 21
170.4
 31
0.0
  0
LINE
  5
19C
330
17
100
AcDbEntity
  8
A-STRC
100
AcDbLine
 10
133.5
 20
170.4
 30
0.0
 11
160.1436
 21
170.4
 31
0.0
  0
LINE
  5
19D
330
17
100
AcDbEntity
  8
A-STRC
100
AcDbLine
 10
133.5
 20
165.4
 30
0.0
 11
170.53589838486226
 21
165.4
 31
0.0
  0
LINE
  5
19E
330
17
100
AcDbEntity
  8
A-STRC
100
AcDbLine
 10
133.5
 20
165.4
 30
0.0
 11
160.1436
 21
165.4
 31
0.0
  0
LINE
  5
19F
330
17
100
AcDbEntity
  8
A-STRC
100
AcDbLine
 10
133.5
 20
170.4
 30
0.0
 11
133.5
 21
165.4
 31
0.0
  0
LINE
  5
1A0
330
17
100
AcDbEntity
  8
A-STRC
100
AcDbLine
 10
93.0
 20
170.4
 30
0.0
 11
133.5
 21
170.4
 31
0.0
  0
LINE
  5
1A1
330
17
100
AcDbEntity
  8
A-STRC
100
AcDbLine
 10
106.85640000000001
 20
170.4
 30
0.0
 11
133.5
 21
170.4
 31
0.0
  0
LINE
  5
1A2
330
17
100
AcDbEntity
  8
A-STRC
100
AcDbLine
 10
96.46410161513775
 20
165.4
 30
0.0
 11
133.5
 21
165.4
 31
0.0
  0
LINE
  5
1A3
330
17
100
AcDbEntity
  8
A-STRC
100
AcDbLine
 10
106.85640000000001
 20
165.4
 30
0.0
 11
133.5
 21
165.4
 31
0.0
  0
LINE
  5
1A4
330
17
100
AcDbEntity
  8
A-STRC
100
AcDbLine
 10
100.0
 20
74.4
 30
0.0
 11
105.0
 21
74.4
 31
0.0
  0
LINE
  5
1A5
330
17
100
AcDbEntity
  8
A-STRC
100
AcDbLine
 10
100.0
 20
165.4
 30
0.0
 11
105.0
 21
165.4
 31
0.0
  0
LINE
  5
1A6
330
17
100
AcDbEntity
  8
A-STRC
100
AcDbLine
 10
105.0
 20
74.4
 30
0.0
 11
105.0
 21
165.4
 31
0.0
  0
LINE
  5
1A7
330
17
100
AcDbEntity
  8
A-STRC
100
AcDbLine
 10
100.0
 20
74.4
 30
0.0
 11
100.0
 21
165.4
 31
0.0
  0
LINE
  5
1A8
330
17
100
AcDbEntity
  8
A-STRC
100
AcDbLine
 10
162.0
 20
74.4
 30
0.0
 11
167.0
 21
74.4
 31
0.0
  0
LINE
  5
1A9
330
17
100
AcDbEntity
  8
A-STRC
100
AcDbLine
 10
162.0
 20
165.4
 30
0.0
 11
167.0
 21
165.4
 31
0.0
  0
LINE
  5
1AA
330
17
100
AcDbEntity
  8
A-STRC
100
AcDbLine
 10
167.0
 20
74.4
 30
0.0
 11
167.0
 21
165.4
 31
0.0
  0
LINE
  5
1AB
330
17
100
AcDbEntity
  8
A-STRC
100
AcDbLine
 10
162.0
 20
74.4
 30
0.0
 11
162.0
 21
165.4
 31
0.0
  0
LINE
  5
1AC
330
17
100
AcDbEntity
  8
A-STRC
100
AcDbLine
 10
131.0
 20
74.4
 30
0.0
 11
136.0
 21
74.4
 31
0.0
  0
LINE
  5
1AD
330
17
100
AcDbEntity
  8
A-STRC
100
AcDbLine
 10
131.0
 20
165.4
 30
0.0
 11
136.0
 21
165.4
 31
0.0
  0
LINE
  5
1AE
330
17
100
AcDbEntity
  8
A-STRC
100
AcDbLine
 10
136.0
 20
74.4
 30
0.0
 11
136.0
 21
165.4
 31
0.0
  0
LINE
  5
1AF
330
17
100
AcDbEntity
  8
A-STRC
100
AcDbLine
 10
131.0
 20
74.4
 30
0.0
 11
131.0
 21
165.4
 31
0.0
  0
DIMENSION
  5
1B0
330
17
100
AcDbEntity
  8
A-DIMS
100
AcDbDimension
280
0
  2
*D6
  3
ARCH
 10
73.5
 20
58.400000000000006
 30
0.0
 11
133.5
 21
58.400000000000006
 31
0.0
 70
32
 71
5
  1
10'-0"
100
AcDbAlignedDimension
 13
73.5
 23
74.4
 33
0.0
 14
193.5
 24
74.4
 34
0.0
 50
0.0
100
AcDbRotatedDimension
  0
DIMENSION
  5
1C0
330
17
100
AcDbEntity
  8
A-DIMS
100
AcDbDimension
280
0
  2
*D7
  3
ARCH
 10
57.5
 20
74.4
 30
0.0
 11
57.5
 21
119.4
 31
0.0
 70
32
 71
5
  1
7'-6"
100
AcDbAlignedDimension
 13
73.5
 23
74.4
 33
0.0
 14
73.5
 24
164.4
 34
0.0
 50
90.0
100
AcDbRotatedDimension
  0
DIMENSION
  5
1D0
330
17
100
AcDbEntity
  8
A-DIMS
100
AcDbDimension
280
0
  2
*D8
  3
ARCH
 10
209.5
 20
74.4
 30
0.0
 11
209.5
 21
122.4
 31
0.0
 70
32
 71
5
  1
8'-0"
100
AcDbAlignedDimension
 13
174.0
 23
74.4
 33
0.0
 14
174.0
 24
170.4
 34
0.0
 50
90.0
100
AcDbRotatedDimension
  0
TEXT
  5
1E0
330
17
100
AcDbEntity
  8
A-ANNO
100
AcDbText
 10
133.5
 20
40.400000000000006
 30
0.0
 40
6.0
  1
FRONT ELEVATION
  7
ARCH-TXT
 72
1
 11
133.5
 21
40.400000000000006
 31
0.0
100
AcDbText
 73
2
  0
LINE
  5
1E1
330
17
100
AcDbEntity
  8
A-ANNO
100
AcDbLine
 10
105.6
 20
35.400000000000006
 30
0.0
 11
161.4
 21
35.400000000000006
 31
0.0
  0
TEXT
  5
1E2
330
17
100
AcDbEntity
  8
A-ANNO
100
AcDbText
 10
133.5
 20
29.400000000000006
 30
0.0
 40
3.5
  1
SCALE: 1/2" = 1'-0"
  7
ARCH-TXT
 72
1
 11
133.5
 21
29.400000000000006
 31
0.0
100
AcDbText
 73
2
  0
LINE
  5
1E3
330
17
100
AcDbEntity
  8
A-FLOR
100
AcDbLine
 10
276.0
 20
74.4
 30
0.0
 11
396.0
 21
74.4
 31
0.0
  0
LINE
  5
1E4
330
17
100
AcDbEntity
  8
A-STRC
100
AcDbLine
 10
390.0
 20
74.4
 30
0.0
 11
396.0
 21
74.4
 31
0.0
  0
LINE
  5
1E5
330
17
100
AcDbEntity
  8
A-STRC
100
AcDbLine
 10
390.0
 20
164.4
 30
0.0
 11
396.0
 21
164.4
 31
0.0
  0
LINE
  5
1E6
330
17
100
AcDbEntity
  8
A-STRC
100
AcDbLine
 10
390.0
 20
74.4
 30
0.0
 11
390.0
 21
164.4
 31
0.0
  0
LINE
  5
1E7
330
17
100
AcDbEntity
  8
A-STRC
100
AcDbLine
 10
396.0
 20
74.4
 30
0.0
 11
396.0
 21
164.4
 31
0.0
  0
LINE
  5
1E8
330
17
100
AcDbEntity
  8
A-STRC
100
AcDbLine
 10
333.0
 20
74.4
 30
0.0
 11
339.0
 21
74.4
 31
0.0
  0
LINE
  5
1E9
330
17
100
AcDbEntity
  8
A-STRC
100
AcDbLine
 10
333.0
 20
164.4
 30
0.0
 11
339.0
 21
164.4
 31
0.0
  0
LINE
  5
1EA
330
17
100
AcDbEntity
  8
A-STRC
100
AcDbLine
 10
333.0
 20
74.4
 30
0.0
 11
333.0
 21
164.4
 31
0.0
  0
LINE
  5
1EB
330
17
100
AcDbEntity
  8
A-STRC
100
AcDbLine
 10
339.0
 20
74.4
 30
0.0
 11
339.0
 21
164.4
 31
0.0
  0
LINE
  5
1EC
330
17
100
AcDbEntity
  8
A-STRC
100
AcDbLine
 10
339.0
 20
158.4
 30
0.0
 11
340.0
 21
158.4
 31
0.0
  0
LINE
  5
1ED
330
17
100
AcDbEntity
  8
A-STRC
100
AcDbLine
 10
345.0
 20
158.4
 30
0.0
 11
390.0
 21
158.4
 31
0.0
  0
LINE
  5
1EE
330
17
100
AcDbEntity
  8
A-STRC
100
AcDbLine
 10
339.0
 20
164.4
 30
0.0
 11
340.0
 21
164.4
 31
0.0
  0
LINE
  5
1EF
330
17
100
AcDbEntity
  8
A-STRC
100
AcDbLine
 10
345.0
 20
164.4
 30
0.0
 11
390.0
 21
164.4
 31
0.0
  0
LINE
  5
1F0
330
17
100
AcDbEntity
  8
A-STRC
100
AcDbLine
 10
339.0
 20
158.4
 30
0.0
 11
339.0
 21
164.4
 31
0.0
  0
LINE
  5
1F1
330
17
100
AcDbEntity
  8
A-STRC
100
AcDbLine
 10
390.0
 20
158.4
 30
0.0
 11
390.0
 21
164.4
 31
0.0
  0
LINE
  5
1F2
330
17
100
AcDbEntity
  8
A-STRC
100
AcDbLine
 10
339.0
 20
158.4
 30
0.0
 11
390.0
 21
158.4
 31
0.0
  0
LINE
  5
1F3
330
17
100
AcDbEntity
  8
A-STRC
100
AcDbLine
 10
339.0
 20
164.4
 30
0.0
 11
390.0
 21
164.4
 31
0.0
  0
LINE
  5
1F4
330
17
100
AcDbEntity
  8
A-STRC
100
AcDbLine
 10
378.0
 20
158.4
 30
0.0
 11
384.0
 21
158.4
 31
0.0
  0
LINE
  5
1F5
330
17
100
AcDbEntity
  8
A-STRC
100
AcDbLine
 10
378.0
 20
164.4
 30
0.0
 11
384.0
 21
164.4
 31
0.0
  0
LINE
  5
1F6
330
17
100
AcDbEntity
  8
A-STRC
100
AcDbLine
 10
346.0
 20
165.4
 30
0.0
 11
348.0
 21
170.4
 31
0.0
  0
LINE
  5
1F7
330
17
100
AcDbEntity
  8
A-STRC
100
AcDbLine
 10
277.8519
 20
170.4
 30
0.0
 11
348.0
 21
170.4
 31
0.0
  0
LINE
  5
1F8
330
17
100
AcDbEntity
  8
A-STRC
100
AcDbLine
 10
293.8519
 20
170.4
 30
0.0
 11
340.0
 21
170.4
 31
0.0
  0
LINE
  5
1F9
330
17
100
AcDbEntity
  8
A-STRC
100
AcDbLine
 10
281.8519
 20
165.4
 30
0.0
 11
346.0
 21
165.4
 31
0.0
  0
LINE
  5
1FA
330
17
100
AcDbEntity
  8
A-STRC
100
AcDbLine
 10
293.8519
 20
165.4
 30
0.0
 11
340.0
 21
165.4
 31
0.0
  0
LINE
  5
1FB
330
17
100
AcDbEntity
  8
A-STRC
100
AcDbLine
 10
277.8519
 20
170.4
 30
0.0
 11
281.8519
 21
165.4
 31
0.0
  0
LINE
  5
1FC
330
17
100
AcDbEntity
  8
A-STRC
100
AcDbLine
 10
340.0
 20
74.4
 30
0.0
 11
345.0
 21
74.4
 31
0.0
  0
LINE
  5
1FD
330
17
100
AcDbEntity
  8
A-STRC
100
AcDbLine
 10
340.0
 20
165.4
 30
0.0
 11
345.0
 21
165.4
 31
0.0
  0
LINE
  5
1FE
330
17
100
AcDbEntity
  8
A-STRC
100
AcDbLine
 10
340.0
 20
74.4
 30
0.0
 11
340.0
 21
158.4
 31
0.0
  0
LINE
  5
1FF
330
17
100
AcDbEntity
  8
A-STRC
100
AcDbLine
 10
340.0
 20
164.4
 30
0.0
 11
340.0
 21
165.4
 31
0.0
  0
LINE
  5
200
330
17
100
AcDbEntity
  8
A-STRC
100
AcDbLine
 10
345.0
 20
74.4
 30
0.0
 11
345.0
 21
158.4
 31
0.0
  0
LINE
  5
201
330
17
100
AcDbEntity
  8
A-STRC
100
AcDbLine
 10
345.0
 20
164.4
 30
0.0
 11
345.0
 21
165.4
 31
0.0
  0
LINE
  5
202
330
17
100
AcDbEntity
  8
A-STRC
100
AcDbLine
 10
286.5
 20
74.4
 30
0.0
 11
291.5
 21
74.4
 31
0.0
  0
LINE
  5
203
330
17
100
AcDbEntity
  8
A-STRC
100
AcDbLine
 10
286.5
 20
165.4
 30
0.0
 11
291.5
 21
165.4
 31
0.0
  0
LINE
  5
204
330
17
100
AcDbEntity
  8
A-STRC
100
AcDbLine
 10
286.5
 20
74.4
 30
0.0
 11
286.5
 21
165.4
 31
0.0
  0
LINE
  5
205
330
17
100
AcDbEntity
  8
A-STRC
100
AcDbLine
 10
291.5
 20
74.4
 30
0.0
 11
291.5
 21
165.4
 31
0.0
  0
DIMENSION
  5
206
330
17
100
AcDbEntity
  8
A-DIMS
100
AcDbDimension
280
0
  2
*D9
  3
ARCH
 10
276.0
 20
58.400000000000006
 30
0.0
 11
336.0
 21
58.400000000000006
 31
0.0
 70
32
 71
5
  1
10'-0"
100
AcDbAlignedDimension
 13
276.0
 23
74.4
 33
0.0
 14
396.0
 24
74.4
 34
0.0
 50
0.0
100
AcDbRotatedDimension
  0
DIMENSION
  5
216
330
17
100
AcDbEntity
  8
A-DIMS
100
AcDbDimension
280
0
  2
*D10
  3
ARCH
 10
286.5
 20
48.400000000000006
 30
0.0
 11
341.25
 21
48.400000000000006
 31
0.0
 70
32
 71
5
  1
9'-1 1/2"
100
AcDbAlignedDimension
 13
286.5
 23
74.4
 33
0.0
 14
396.0
 24
74.4
 34
0.0
 50
0.0
100
AcDbRotatedDimension
  0
DIMENSION
  5
226
330
17
100
AcDbEntity
  8
A-DIMS
100
AcDbDimension
280
0
  2
*D11
  3
ARCH
 10
260.0
 20
74.4
 30
0.0
 11
260.0
 21
122.4
 31
0.0
 70
32
 71
5
  1
8'-0"
100
AcDbAlignedDimension
 13
276.0
 23
74.4
 33
0.0
 14
276.0
 24
170.4
 34
0.0
 50
90.0
100
AcDbRotatedDimension
  0
DIMENSION
  5
236
330
17
100
AcDbEntity
  8
A-DIMS
100
AcDbDimension
280
0
  2
*D12
  3
ARCH
 10
412.0
 20
74.4
 30
0.0
 11
412.0
 21
119.4
 31
0.0
 70
32
 71
5
  1
7'-6"
100
AcDbAlignedDimension
 13
396.0
 23
74.4
 33
0.0
 14
396.0
 24
164.4
 34
0.0
 50
90.0
100
AcDbRotatedDimension
  0
TEXT
  5
246
330
17
100
AcDbEntity
  8
A-ANNO
100
AcDbText
 10
268.0
 20
68.4
 30
0.0
 40
3.0
  1
AISLE
  7
ARCH-TXT
 72
2
 11
268.0
 21
68.4
 31
0.0
100
AcDbText
 73
2
  0
TEXT
  5
247
330
17
100
AcDbEntity
  8
A-ANNO
100
AcDbText
 10
336.0
 20
30.400000000000006
 30
0.0
 40
6.0
  1
SIDE ELEVATION
  7
ARCH-TXT
 72
1
 11
336.0
 21
30.400000000000006
 31
0.0
100
AcDbText
 73
2
  0
LINE
  5
248
330
17
100
AcDbEntity
  8
A-ANNO
100
AcDbLine
 10
309.96
 20
25.400000000000006
 30
0.0
 11
362.04
 21
25.400000000000006
 31
0.0
  0
TEXT
  5
249
330
17
100
AcDbEntity
  8
A-ANNO
100
AcDbText
 10
336.0
 20
19.400000000000006
 30
0.0
 40
3.5
  1
SCALE: 1/2" = 1'-0"
  7
ARCH-TXT
 72
1
 11
336.0
 21
19.400000000000006
 31
0.0
100
AcDbText
 73
2
  0
TEXT
  5
24A
330
17
100
AcDbEntity
  8
A-ANNO
100
AcDbText
 10
513.0
 20
409.2
 30
0.0
 40
6.720000000000001
  1
BOOTH CONCEPT
  7
ARCH-TXT
 72
1
 11
513.0
 21
409.2
 31
0.0
100
AcDbText
 73
2
  0
TEXT
  5
24B
330
17
100
AcDbEntity
  8
A-ANNO
100
AcDbText
 10
513.0
 20
399.59999999999997
 30
0.0
 40
4.800000000000001
  1
10' x 10' EXHIBIT
  7
ARCH-TXT
 72
1
 11
513.0
 21
399.59999999999997
 31
0.0
100
AcDbText
 73
2
  0
LINE
  5
24C
330
17
100
AcDbEntity
  8
A-TTLB
100
AcDbLine
 10
462.0
 20
391.2
 30
0.0
 11
564.0
 21
391.2
 31
0.0
  0
TEXT
  5
24D
330
17
100
AcDbEntity
  8
A-ANNO
100
AcDbText
 10
466.8
 20
382.8
 30
0.0
 40
3.3600000000000003
  1
GENERAL NOTES
  7
ARCH-TXT
 11
466.8
 21
382.8
 31
0.0
100
AcDbText
 73
2
  0
TEXT
  5
24E
330
17
100
AcDbEntity
  8
A-ANNO
100
AcDbText
 10
466.8
 20
374.88
 30
0.0
 40
2.4000000000000004
  1
1. ALL STRUCTURE IS CONTAINED WITHIN THE
  7
ARCH-TXT
 11
466.8
 21
374.88
 31
0.0
100
AcDbText
 73
2
  0
TEXT
  5
24F
330
17
100
AcDbEntity
  8
A-ANNO
100
AcDbText
 10
466.8
 20
369.84
 30
0.0
 40
2.4000000000000004
  1
   10'-0" x 10'-0" BOOTH FOOTPRINT. NOTHING
  7
ARCH-TXT
 11
466.8
 21
369.84
 31
0.0
100
AcDbText
 73
2
  0
TEXT
  5
250
330
17
100
AcDbEntity
  8
A-ANNO
100
AcDbText
 10
466.8
 20
364.79999999999995
 30
0.0
 40
2.4000000000000004
  1
   PROJECTS INTO THE AISLE.
  7
ARCH-TXT
 11
466.8
 21
364.79999999999995
 31
0.0
100
AcDbText
 73
2
  0
TEXT
  5
251
330
17
100
AcDbEntity
  8
A-ANNO
100
AcDbText
 10
466.8
 20
359.75999999999993
 30
0.0
 40
2.4000000000000004
  1
2. MAX. OVERALL HEIGHT: 8'-0" (TOP OF
  7
ARCH-TXT
 11
466.8
 21
359.75999999999993
 31
0.0
100
AcDbText
 73
2
  0
TEXT
  5
252
330
17
100
AcDbEntity
  8
A-ANNO
100
AcDbText
 10
466.8
 20
354.7199999999999
 30
0.0
 40
2.4000000000000004
  1
   TRIANGLE CANOPY).
  7
ARCH-TXT
 11
466.8
 21
354.7199999999999
 31
0.0
100
AcDbText
 73
2
  0
TEXT
  5
253
330
17
100
AcDbEntity
  8
A-ANNO
100
AcDbText
 10
466.8
 20
349.6799999999999
 30
0.0
 40
2.4000000000000004
  1
3. SIDE FRAMES + HEADER BEAM: 7'-6" HIGH,
  7
ARCH-TXT
 11
466.8
 21
349.6799999999999
 31
0.0
100
AcDbText
 73
2
  0
TEXT
  5
254
330
17
100
AcDbEntity
  8
A-ANNO
100
AcDbText
 10
466.8
 20
344.6399999999999
 30
0.0
 40
2.4000000000000004
  1
   6" SQ. POSTS AND BEAMS.
  7
ARCH-TXT
 11
466.8
 21
344.6399999999999
 31
0.0
100
AcDbText
 73
2
  0
TEXT
  5
255
330
17
100
AcDbEntity
  8
A-ANNO
100
AcDbText
 10
466.8
 20
339.59999999999985
 30
0.0
 40
2.4000000000000004
  1
4. TRIANGLE CANOPY: 6'-9" EQUILATERAL,
  7
ARCH-TXT
 11
466.8
 21
339.59999999999985
 31
0.0
100
AcDbText
 73
2
  0
TEXT
  5
256
330
17
100
AcDbEntity
  8
A-ANNO
100
AcDbText
 10
466.8
 20
334.55999999999983
 30
0.0
 40
2.4000000000000004
  1
   8" FRAME, 5" TAPERED FASCIA, ON
  7
ARCH-TXT
 11
466.8
 21
334.55999999999983
 31
0.0
100
AcDbText
 73
2
  0
TEXT
  5
257
330
17
100
AcDbEntity
  8
A-ANNO
100
AcDbText
 10
466.8
 20
329.5199999999998
 30
0.0
 40
2.4000000000000004
  1
   (3) 5" SQ. POSTS.
  7
ARCH-TXT
 11
466.8
 21
329.5199999999998
 31
0.0
100
AcDbText
 73
2
  0
TEXT
  5
258
330
17
100
AcDbEntity
  8
A-ANNO
100
AcDbText
 10
466.8
 20
324.4799999999998
 30
0.0
 40
2.4000000000000004
  1
5. CLEAR HEIGHT UNDER CANOPY: 7'-7".
  7
ARCH-TXT
 11
466.8
 21
324.4799999999998
 31
0.0
100
AcDbText
 73
2
  0
TEXT
  5
259
330
17
100
AcDbEntity
  8
A-ANNO
100
AcDbText
 10
466.8
 20
319.43999999999977
 30
0.0
 40
2.4000000000000004
  1
6. MEMBER SIZES & MATERIALS ARE NOMINAL
  7
ARCH-TXT
 11
466.8
 21
319.43999999999977
 31
0.0
100
AcDbText
 73
2
  0
TEXT
  5
25A
330
17
100
AcDbEntity
  8
A-ANNO
100
AcDbText
 10
466.8
 20
314.39999999999975
 30
0.0
 40
2.4000000000000004
  1
   (CONCEPT). FINAL BY FABRICATOR.
  7
ARCH-TXT
 11
466.8
 21
314.39999999999975
 31
0.0
100
AcDbText
 73
2
  0
TEXT
  5
25B
330
17
100
AcDbEntity
  8
A-ANNO
100
AcDbText
 10
466.8
 20
309.35999999999973
 30
0.0
 40
2.4000000000000004
  1
7. EXHIBITOR TO VERIFY HEIGHT AND LINE-OF-
  7
ARCH-TXT
 11
466.8
 21
309.35999999999973
 31
0.0
100
AcDbText
 73
2
  0
TEXT
  5
25C
330
17
100
AcDbEntity
  8
A-ANNO
100
AcDbText
 10
466.8
 20
304.3199999999997
 30
0.0
 40
2.4000000000000004
  1
   SIGHT LIMITS FOR THIS BOOTH TYPE IN THE
  7
ARCH-TXT
 11
466.8
 21
304.3199999999997
 31
0.0
100
AcDbText
 73
2
  0
TEXT
  5
25D
330
17
100
AcDbEntity
  8
A-ANNO
100
AcDbText
 10
466.8
 20
299.2799999999997
 30
0.0
 40
2.4000000000000004
  1
   IAAPA EXPO EXHIBITOR MANUAL.
  7
ARCH-TXT
 11
466.8
 21
299.2799999999997
 31
0.0
100
AcDbText
 73
2
  0
TEXT
  5
25E
330
17
100
AcDbEntity
  8
A-ANNO
100
AcDbText
 10
466.8
 20
294.23999999999967
 30
0.0
 40
2.4000000000000004
  1
8. DIMENSIONS GOVERN - DO NOT SCALE.
  7
ARCH-TXT
 11
466.8
 21
294.23999999999967
 31
0.0
100
AcDbText
 73
2
  0
LINE
  5
25F
330
17
100
AcDbEntity
  8
A-TTLB
100
AcDbLine
 10
462.0
 20
287.0399999999997
 30
0.0
 11
564.0
 21
287.0399999999997
 31
0.0
  0
TEXT
  5
260
330
17
100
AcDbEntity
  8
A-ANNO
100
AcDbText
 10
466.8
 20
282.23999999999967
 30
0.0
 40
2.04
  1
PROJECT
  7
ARCH-TXT
 11
466.8
 21
282.23999999999967
 31
0.0
100
AcDbText
 73
2
  0
TEXT
  5
261
330
17
100
AcDbEntity
  8
A-ANNO
100
AcDbText
 10
466.8
 20
276.9599999999997
 30
0.0
 40
2.88
  1
IAAPA EXPO - 10' x 10' BOOTH
  7
ARCH-TXT
 11
466.8
 21
276.9599999999997
 31
0.0
100
AcDbText
 73
2
  0
LINE
  5
262
330
17
100
AcDbEntity
  8
A-TTLB
100
AcDbLine
 10
462.0
 20
274.0799999999997
 30
0.0
 11
564.0
 21
274.0799999999997
 31
0.0
  0
TEXT
  5
263
330
17
100
AcDbEntity
  8
A-ANNO
100
AcDbText
 10
466.8
 20
269.2799999999997
 30
0.0
 40
2.04
  1
SHOW
  7
ARCH-TXT
 11
466.8
 21
269.2799999999997
 31
0.0
100
AcDbText
 73
2
  0
TEXT
  5
264
330
17
100
AcDbEntity
  8
A-ANNO
100
AcDbText
 10
466.8
 20
263.9999999999997
 30
0.0
 40
2.88
  1
IAAPA EXPO
  7
ARCH-TXT
 11
466.8
 21
263.9999999999997
 31
0.0
100
AcDbText
 73
2
  0
LINE
  5
265
330
17
100
AcDbEntity
  8
A-TTLB
100
AcDbLine
 10
462.0
 20
261.1199999999997
 30
0.0
 11
564.0
 21
261.1199999999997
 31
0.0
  0
TEXT
  5
266
330
17
100
AcDbEntity
  8
A-ANNO
100
AcDbText
 10
466.8
 20
256.3199999999997
 30
0.0
 40
2.04
  1
EXHIBITOR
  7
ARCH-TXT
 11
466.8
 21
256.3199999999997
 31
0.0
100
AcDbText
 73
2
  0
LINE
  5
267
330
17
100
AcDbEntity
  8
A-TTLB
100
AcDbLine
 10
462.0
 20
248.1599999999997
 30
0.0
 11
564.0
 21
248.1599999999997
 31
0.0
  0
TEXT
  5
268
330
17
100
AcDbEntity
  8
A-ANNO
100
AcDbText
 10
466.8
 20
243.3599999999997
 30
0.0
 40
2.04
  1
BOOTH NO.
  7
ARCH-TXT
 11
466.8
 21
243.3599999999997
 31
0.0
100
AcDbText
 73
2
  0
LINE
  5
269
330
17
100
AcDbEntity
  8
A-TTLB
100
AcDbLine
 10
462.0
 20
235.1999999999997
 30
0.0
 11
564.0
 21
235.1999999999997
 31
0.0
  0
TEXT
  5
26A
330
17
100
AcDbEntity
  8
A-ANNO
100
AcDbText
 10
466.8
 20
230.3999999999997
 30
0.0
 40
2.04
  1
BOOTH SIZE
  7
ARCH-TXT
 11
466.8
 21
230.3999999999997
 31
0.0
100
AcDbText
 73
2
  0
TEXT
  5
26B
330
17
100
AcDbEntity
  8
A-ANNO
100
AcDbText
 10
466.8
 20
225.1199999999997
 30
0.0
 40
2.88
  1
10'-0" x 10'-0"
  7
ARCH-TXT
 11
466.8
 21
225.1199999999997
 31
0.0
100
AcDbText
 73
2
  0
LINE
  5
26C
330
17
100
AcDbEntity
  8
A-TTLB
100
AcDbLine
 10
462.0
 20
222.2399999999997
 30
0.0
 11
564.0
 21
222.2399999999997
 31
0.0
  0
TEXT
  5
26D
330
17
100
AcDbEntity
  8
A-ANNO
100
AcDbText
 10
466.8
 20
217.43999999999969
 30
0.0
 40
2.04
  1
DRAWING
  7
ARCH-TXT
 11
466.8
 21
217.43999999999969
 31
0.0
100
AcDbText
 73
2
  0
TEXT
  5
26E
330
17
100
AcDbEntity
  8
A-ANNO
100
AcDbText
 10
466.8
 20
212.15999999999968
 30
0.0
 40
2.88
  1
BOOTH CONCEPT - PLAN, ELEVATIONS
  7
ARCH-TXT
 11
466.8
 21
212.15999999999968
 31
0.0
100
AcDbText
 73
2
  0
TEXT
  5
26F
330
17
100
AcDbEntity
  8
A-ANNO
100
AcDbText
 10
466.8
 20
207.35999999999967
 30
0.0
 40
2.88
  1
& ISOMETRIC
  7
ARCH-TXT
 11
466.8
 21
207.35999999999967
 31
0.0
100
AcDbText
 73
2
  0
LINE
  5
270
330
17
100
AcDbEntity
  8
A-TTLB
100
AcDbLine
 10
462.0
 20
204.47999999999968
 30
0.0
 11
564.0
 21
204.47999999999968
 31
0.0
  0
TEXT
  5
271
330
17
100
AcDbEntity
  8
A-ANNO
100
AcDbText
 10
466.8
 20
199.67999999999967
 30
0.0
 40
2.04
  1
SCALE
  7
ARCH-TXT
 11
466.8
 21
199.67999999999967
 31
0.0
100
AcDbText
 73
2
  0
TEXT
  5
272
330
17
100
AcDbEntity
  8
A-ANNO
100
AcDbText
 10
466.8
 20
194.39999999999966
 30
0.0
 40
2.88
  1
1/2" = 1'-0" (ARCH C 24x18)
  7
ARCH-TXT
 11
466.8
 21
194.39999999999966
 31
0.0
100
AcDbText
 73
2
  0
LINE
  5
273
330
17
100
AcDbEntity
  8
A-TTLB
100
AcDbLine
 10
462.0
 20
191.51999999999967
 30
0.0
 11
564.0
 21
191.51999999999967
 31
0.0
  0
TEXT
  5
274
330
17
100
AcDbEntity
  8
A-ANNO
100
AcDbText
 10
466.8
 20
186.71999999999966
 30
0.0
 40
2.04
  1
DATE
  7
ARCH-TXT
 11
466.8
 21
186.71999999999966
 31
0.0
100
AcDbText
 73
2
  0
TEXT
  5
275
330
17
100
AcDbEntity
  8
A-ANNO
100
AcDbText
 10
466.8
 20
181.43999999999966
 30
0.0
 40
2.88
  1
09/22/2026
  7
ARCH-TXT
 11
466.8
 21
181.43999999999966
 31
0.0
100
AcDbText
 73
2
  0
LINE
  5
276
330
17
100
AcDbEntity
  8
A-TTLB
100
AcDbLine
 10
462.0
 20
178.55999999999966
 30
0.0
 11
564.0
 21
178.55999999999966
 31
0.0
  0
LINE
  5
277
330
17
100
AcDbEntity
  8
A-TTLB
100
AcDbLine
 10
462.0
 20
33.6
 30
0.0
 11
564.0
 21
33.6
 31
0.0
  0
TEXT
  5
278
330
17
100
AcDbEntity
  8
A-ANNO
100
AcDbText
 10
466.8
 20
28.8
 30
0.0
 40
2.04
  1
SHEET
  7
ARCH-TXT
 11
466.8
 21
28.8
 31
0.0
100
AcDbText
 73
2
  0
TEXT
  5
279
330
17
100
AcDbEntity
  8
A-ANNO
100
AcDbText
 10
513.0
 20
20.4
 30
0.0
 40
7.199999999999999
  1
A-1
  7
ARCH-TXT
 72
1
 11
513.0
 21
20.4
 31
0.0
100
AcDbText
 73
2
  0
ENDSEC
  0
SECTION
  2
OBJECTS
  0
DICTIONARY
  5
A
330
0
100
AcDbDictionary
281
1
  3
ACAD_COLOR
350
B
  3
ACAD_GROUP
350
C
  3
ACAD_LAYOUT
350
D
  3
ACAD_MATERIAL
350
E
  3
ACAD_MLEADERSTYLE
350
F
  3
ACAD_MLINESTYLE
350
10
  3
ACAD_PLOTSETTINGS
350
11
  3
ACAD_PLOTSTYLENAME
350
12
  3
ACAD_SCALELIST
350
14
  3
ACAD_TABLESTYLE
350
15
  3
ACAD_VISUALSTYLE
350
16
  3
EZDXF_META
350
2D
  0
DICTIONARY
  5
B
330
A
100
AcDbDictionary
281
1
  0
DICTIONARY
  5
C
330
A
100
AcDbDictionary
281
1
  0
DICTIONARY
  5
D
330
A
100
AcDbDictionary
281
1
  3
Model
350
1A
  3
Layout1
350
1E
  0
DICTIONARY
  5
E
330
A
100
AcDbDictionary
281
1
  3
ByBlock
350
1F
  3
ByLayer
350
20
  3
Global
350
21
  0
DICTIONARY
  5
F
330
A
100
AcDbDictionary
281
1
  3
Standard
350
2C
  0
DICTIONARY
  5
10
330
A
100
AcDbDictionary
281
1
  3
Standard
350
22
  0
DICTIONARY
  5
11
330
A
100
AcDbDictionary
281
1
  0
ACDBDICTIONARYWDFLT
  5
12
330
A
100
AcDbDictionary
281
1
  3
Normal
350
13
100
AcDbDictionaryWithDefault
340
13
  0
ACDBPLACEHOLDER
  5
13
330
12
  0
DICTIONARY
  5
14
330
A
100
AcDbDictionary
281
1
  0
DICTIONARY
  5
15
330
A
100
AcDbDictionary
281
1
  0
DICTIONARY
  5
16
330
A
100
AcDbDictionary
281
1
  3
2dWireframe
350
5A
  3
Basic
350
5B
  3
Brighten
350
5C
  3
ColorChange
350
5D
  3
Conceptual
350
5E
  3
Dim
350
5F
  3
EdgeColorOff
350
60
  3
Facepattern
350
61
  3
Flat
350
62
  3
FlatWithEdges
350
63
  3
Gouraud
350
64
  3
GouraudWithEdges
350
65
  3
Hidden
350
66
  3
JitterOff
350
67
  3
Linepattern
350
68
  3
Modeling
350
69
  3
OverhangOff
350
6A
  3
Realistic
350
6B
  3
Shaded
350
6C
  3
Shaded with edges
350
6D
  3
Shades of Gray
350
6E
  3
Sketchy
350
6F
  3
Thicken
350
70
  3
Wireframe
350
71
  3
X-Ray
350
72
  0
LAYOUT
  5
1A
330
D
100
AcDbPlotSettings
  1

  4
A3
  6

 40
7.5
 41
20.0
 42
7.5
 43
20.0
 44
420.0
 45
297.0
 46
0.0
 47
0.0
 48
0.0
 49
0.0
140
0.0
141
0.0
142
1.0
143
1.0
 70
1024
 72
1
 73
0
 74
5
  7

 75
16
 76
0
 77
2
 78
300
147
1.0
148
0.0
149
0.0
100
AcDbLayout
  1
Model
 70
1
 71
0
 10
0.0
 20
0.0
 11
420.0
 21
297.0
 12
0.0
 22
0.0
 32
0.0
 14
1e+20
 24
1e+20
 34
1e+20
 15
-1e+20
 25
-1e+20
 35
-1e+20
146
0.0
 13
0.0
 23
0.0
 33
0.0
 16
1.0
 26
0.0
 36
0.0
 17
0.0
 27
1.0
 37
0.0
 76
1
330
17
  0
LAYOUT
  5
1E
330
D
100
AcDbPlotSettings
  1

  4
A3
  6

 40
7.5
 41
20.0
 42
7.5
 43
20.0
 44
420.0
 45
297.0
 46
0.0
 47
0.0
 48
0.0
 49
0.0
140
0.0
141
0.0
142
1.0
143
1.0
 70
0
 72
1
 73
0
 74
5
  7

 75
16
 76
0
 77
2
 78
300
147
1.0
148
0.0
149
0.0
100
AcDbLayout
  1
Layout1
 70
1
 71
1
 10
0.0
 20
0.0
 11
420.0
 21
297.0
 12
0.0
 22
0.0
 32
0.0
 14
1e+20
 24
1e+20
 34
1e+20
 15
-1e+20
 25
-1e+20
 35
-1e+20
146
0.0
 13
0.0
 23
0.0
 33
0.0
 16
1.0
 26
0.0
 36
0.0
 17
0.0
 27
1.0
 37
0.0
 76
1
330
1B
  0
MATERIAL
  5
1F
102
{ACAD_REACTORS
330
E
102
}
330
E
100
AcDbMaterial
  1
ByBlock
  2

 70
0
 40
1.0
 71
1
 41
1.0
 91
-1023410177
 42
1.0
 72
1
  3

 73
1
 74
1
 75
1
 44
0.5
 73
0
 45
1.0
 46
1.0
 77
1
  4

 78
1
 79
1
170
1
 48
1.0
171
1
  6

172
1
173
1
174
1
140
1.0
141
1.0
175
1
  7

176
1
177
1
178
1
143
1.0
179
1
  8

270
1
271
1
272
1
145
1.0
146
1.0
273
1
  9

274
1
275
1
276
1
 42
1.0
 72
1
  3

 73
1
 74
1
 75
1
 94
63
  0
MATERIAL
  5
20
102
{ACAD_REACTORS
330
E
102
}
330
E
100
AcDbMaterial
  1
ByLayer
  2

 70
0
 40
1.0
 71
1
 41
1.0
 91
-1023410177
 42
1.0
 72
1
  3

 73
1
 74
1
 75
1
 44
0.5
 73
0
 45
1.0
 46
1.0
 77
1
  4

 78
1
 79
1
170
1
 48
1.0
171
1
  6

172
1
173
1
174
1
140
1.0
141
1.0
175
1
  7

176
1
177
1
178
1
143
1.0
179
1
  8

270
1
271
1
272
1
145
1.0
146
1.0
273
1
  9

274
1
275
1
276
1
 42
1.0
 72
1
  3

 73
1
 74
1
 75
1
 94
63
  0
MATERIAL
  5
21
102
{ACAD_REACTORS
330
E
102
}
330
E
100
AcDbMaterial
  1
Global
  2

 70
0
 40
1.0
 71
1
 41
1.0
 91
-1023410177
 42
1.0
 72
1
  3

 73
1
 74
1
 75
1
 44
0.5
 73
0
 45
1.0
 46
1.0
 77
1
  4

 78
1
 79
1
170
1
 48
1.0
171
1
  6

172
1
173
1
174
1
140
1.0
141
1.0
175
1
  7

176
1
177
1
178
1
143
1.0
179
1
  8

270
1
271
1
272
1
145
1.0
146
1.0
273
1
  9

274
1
275
1
276
1
 42
1.0
 72
1
  3

 73
1
 74
1
 75
1
 94
63
  0
MLINESTYLE
  5
22
102
{ACAD_REACTORS
330
10
102
}
330
10
100
AcDbMlineStyle
  2
Standard
 70
0
  3

 62
256
 51
90.0
 52
90.0
 71
2
 49
0.5
 62
256
  6
BYLAYER
 49
-0.5
 62
256
  6
BYLAYER
  0
MLEADERSTYLE
  5
2C
102
{ACAD_REACTORS
330
F
102
}
330
F
100
AcDbMLeaderStyle
179
2
170
2
171
1
172
0
 90
2
 40
0.0
 41
0.0
173
1
 91
-1056964608
 92
-2
290
1
 42
2.0
291
1
 43
8.0
  3
Standard
 44
4.0
300

342
29
174
1
175
1
176
0
178
1
 93
-1056964608
 45
4.0
292
0
297
0
 46
4.0
 94
-1056964608
 47
1.0
 49
1.0
140
1.0
294
1
141
0.0
177
0
142
1.0
295
0
296
0
143
3.75
271
0
272
9
273
9
  0
DICTIONARY
  5
2D
330
A
100
AcDbDictionary
280
1
281
1
  3
CREATED_BY_EZDXF
350
2E
  3
WRITTEN_BY_EZDXF
350
27D
  0
DICTIONARYVAR
  5
2E
330
2D
100
DictionaryVariables
280
0
  1
1.4.4 @ 2026-09-22T20:49:52.314451+00:00
  0
VISUALSTYLE
  5
5A
102
{ACAD_REACTORS
330
16
102
}
330
16
100
AcDbVisualStyle
  2
2dWireframe
 70
4
 90
0
 40
0.6
 62
7
290
0
291
0
  0
VISUALSTYLE
  5
5B
102
{ACAD_REACTORS
330
16
102
}
330
16
100
AcDbVisualStyle
  2
Basic
 70
7
 90
1
 40
0.6
 62
7
290
0
291
1
  0
VISUALSTYLE
  5
5C
102
{ACAD_REACTORS
330
16
102
}
330
16
100
AcDbVisualStyle
  2
Brighten
 70
12
 90
2
 40
0.6
 62
7
290
0
291
1
  0
VISUALSTYLE
  5
5D
102
{ACAD_REACTORS
330
16
102
}
330
16
100
AcDbVisualStyle
  2
ColorChange
 70
16
 90
2
 40
0.6
 62
8
290
0
291
1
  0
VISUALSTYLE
  5
5E
102
{ACAD_REACTORS
330
16
102
}
330
16
100
AcDbVisualStyle
  2
Conceptual
 70
9
 90
3
 40
0.6
 62
7
290
0
291
0
  0
VISUALSTYLE
  5
5F
102
{ACAD_REACTORS
330
16
102
}
330
16
100
AcDbVisualStyle
  2
Dim
 70
11
 90
2
 40
0.6
 62
7
290
0
291
1
  0
VISUALSTYLE
  5
60
102
{ACAD_REACTORS
330
16
102
}
330
16
100
AcDbVisualStyle
  2
EdgeColorOff
 70
22
 90
2
 40
0.6
 62
7
290
0
291
1
  0
VISUALSTYLE
  5
61
102
{ACAD_REACTORS
330
16
102
}
330
16
100
AcDbVisualStyle
  2
Facepattern
 70
15
 90
2
 40
0.6
 62
7
290
0
291
1
  0
VISUALSTYLE
  5
62
102
{ACAD_REACTORS
330
16
102
}
330
16
100
AcDbVisualStyle
  2
Flat
 70
0
 90
2
 40
0.6
 62
7
290
0
291
1
  0
VISUALSTYLE
  5
63
102
{ACAD_REACTORS
330
16
102
}
330
16
100
AcDbVisualStyle
  2
FlatWithEdges
 70
1
 90
2
 40
0.6
 62
7
290
0
291
1
  0
VISUALSTYLE
  5
64
102
{ACAD_REACTORS
330
16
102
}
330
16
100
AcDbVisualStyle
  2
Gouraud
 70
2
 90
2
 40
0.6
 62
7
290
0
291
1
  0
VISUALSTYLE
  5
65
102
{ACAD_REACTORS
330
16
102
}
330
16
100
AcDbVisualStyle
  2
GouraudWithEdges
 70
3
 90
2
 40
0.6
 62
7
290
0
291
1
  0
VISUALSTYLE
  5
66
102
{ACAD_REACTORS
330
16
102
}
330
16
100
AcDbVisualStyle
  2
Hidden
 70
6
 90
1
 40
0.6
 62
7
290
0
291
0
  0
VISUALSTYLE
  5
67
102
{ACAD_REACTORS
330
16
102
}
330
16
100
AcDbVisualStyle
  2
JitterOff
 70
20
 90
2
 40
0.6
 62
7
290
0
291
1
  0
VISUALSTYLE
  5
68
102
{ACAD_REACTORS
330
16
102
}
330
16
100
AcDbVisualStyle
  2
Linepattern
 70
14
 90
2
 40
0.6
 62
7
290
0
291
1
  0
VISUALSTYLE
  5
69
102
{ACAD_REACTORS
330
16
102
}
330
16
100
AcDbVisualStyle
  2
Modeling
 70
10
 90
2
 40
0.6
 62
7
290
0
291
0
  0
VISUALSTYLE
  5
6A
102
{ACAD_REACTORS
330
16
102
}
330
16
100
AcDbVisualStyle
  2
OverhangOff
 70
21
 90
2
 40
0.6
 62
7
290
0
291
1
  0
VISUALSTYLE
  5
6B
102
{ACAD_REACTORS
330
16
102
}
330
16
100
AcDbVisualStyle
  2
Realistic
 70
8
 90
2
 40
0.6
 62
7
290
0
291
0
  0
VISUALSTYLE
  5
6C
102
{ACAD_REACTORS
330
16
102
}
330
16
100
AcDbVisualStyle
  2
Shaded
 70
27
 90
2
 40
0.6
 62
7
290
0
291
0
  0
VISUALSTYLE
  5
6D
102
{ACAD_REACTORS
330
16
102
}
330
16
100
AcDbVisualStyle
  2
Shaded with edges
 70
26
 90
2
 40
0.6
 62
7
290
0
291
0
  0
VISUALSTYLE
  5
6E
102
{ACAD_REACTORS
330
16
102
}
330
16
100
AcDbVisualStyle
  2
Shades of Gray
 70
23
 90
2
 40
0.6
 62
7
290
0
291
0
  0
VISUALSTYLE
  5
6F
102
{ACAD_REACTORS
330
16
102
}
330
16
100
AcDbVisualStyle
  2
Sketchy
 70
24
 90
1
 40
0.6
 62
7
290
0
291
0
  0
VISUALSTYLE
  5
70
102
{ACAD_REACTORS
330
16
102
}
330
16
100
AcDbVisualStyle
  2
Thicken
 70
13
 90
2
 40
0.6
 62
7
290
0
291
1
  0
VISUALSTYLE
  5
71
102
{ACAD_REACTORS
330
16
102
}
330
16
100
AcDbVisualStyle
  2
Wireframe
 70
5
 90
0
 40
0.6
 62
7
290
0
291
0
  0
VISUALSTYLE
  5
72
102
{ACAD_REACTORS
330
16
102
}
330
16
100
AcDbVisualStyle
  2
X-Ray
 70
25
 90
2
 40
0.5
 62
7
290
0
291
0
  0
DICTIONARYVAR
  5
27D
330
2D
100
DictionaryVariables
280
0
  1
1.4.4 @ 2026-09-22T20:49:52.371231+00:00
  0
ENDSEC
  0
EOF
